<?xml version="1.0" encoding="UTF-8" standalone="no"?>
<!-- Created with Inkscape (http://www.inkscape.org/) -->

<svg
   xmlns:dc="http://purl.org/dc/elements/1.1/"
   xmlns:cc="http://creativecommons.org/ns#"
   xmlns:rdf="http://www.w3.org/1999/02/22-rdf-syntax-ns#"
   xmlns:svg="http://www.w3.org/2000/svg"
   xmlns="http://www.w3.org/2000/svg"
   xmlns:xlink="http://www.w3.org/1999/xlink"
   xmlns:sodipodi="http://sodipodi.sourceforge.net/DTD/sodipodi-0.dtd"
   xmlns:inkscape="http://www.inkscape.org/namespaces/inkscape"
   width="1052.3622"
   height="744.09448"
   id="svg2"
   version="1.1"
   inkscape:version="0.48.3.1 r9886"
   sodipodi:docname="signup-pictures.svg">
  <defs
     id="defs4">
    <linearGradient
       id="linearGradient4414">
      <stop
         id="stop4422"
         offset="0"
         style="stop-color:#000000;stop-opacity:0.48275861;" />
      <stop
         style="stop-color:#000000;stop-opacity:0;"
         offset="1"
         id="stop4418" />
    </linearGradient>
    <linearGradient
       inkscape:collect="always"
       id="linearGradient4384">
      <stop
         style="stop-color:#000000;stop-opacity:1;"
         offset="0"
         id="stop4386" />
      <stop
         style="stop-color:#000000;stop-opacity:0;"
         offset="1"
         id="stop4388" />
    </linearGradient>
    <linearGradient
       inkscape:collect="always"
       id="linearGradient4339">
      <stop
         style="stop-color:#ffffff;stop-opacity:1;"
         offset="0"
         id="stop4341" />
      <stop
         style="stop-color:#ffffff;stop-opacity:0;"
         offset="1"
         id="stop4343" />
    </linearGradient>
    <linearGradient
       inkscape:collect="always"
       id="linearGradient4209">
      <stop
         style="stop-color:#ffffff;stop-opacity:1;"
         offset="0"
         id="stop4211" />
      <stop
         style="stop-color:#ffffff;stop-opacity:0;"
         offset="1"
         id="stop4213" />
    </linearGradient>
    <linearGradient
       inkscape:collect="always"
       id="linearGradient4182">
      <stop
         style="stop-color:#d19211;stop-opacity:1;"
         offset="0"
         id="stop4184" />
      <stop
         style="stop-color:#d19211;stop-opacity:0;"
         offset="1"
         id="stop4186" />
    </linearGradient>
    <linearGradient
       id="linearGradient4162">
      <stop
         style="stop-color:#a5620b;stop-opacity:1;"
         offset="0"
         id="stop4164" />
      <stop
         style="stop-color:#a5620b;stop-opacity:0;"
         offset="1"
         id="stop4166" />
    </linearGradient>
    <linearGradient
       inkscape:collect="always"
       id="linearGradient3888">
      <stop
         style="stop-color:#e6e6e6;stop-opacity:1;"
         offset="0"
         id="stop3890" />
      <stop
         style="stop-color:#e6e6e6;stop-opacity:0;"
         offset="1"
         id="stop3892" />
    </linearGradient>
    <linearGradient
       inkscape:collect="always"
       id="linearGradient3859">
      <stop
         style="stop-color:#e6e6e6;stop-opacity:1;"
         offset="0"
         id="stop3861" />
      <stop
         style="stop-color:#e6e6e6;stop-opacity:0;"
         offset="1"
         id="stop3863" />
    </linearGradient>
    <linearGradient
       inkscape:collect="always"
       id="linearGradient3877">
      <stop
         style="stop-color:#f2f2f2;stop-opacity:1;"
         offset="0"
         id="stop3879" />
      <stop
         style="stop-color:#f2f2f2;stop-opacity:0;"
         offset="1"
         id="stop3881" />
    </linearGradient>
    <linearGradient
       inkscape:collect="always"
       id="linearGradient3797">
      <stop
         style="stop-color:#ececec;stop-opacity:1;"
         offset="0"
         id="stop3799" />
      <stop
         style="stop-color:#ececec;stop-opacity:0;"
         offset="1"
         id="stop3801" />
    </linearGradient>
    <linearGradient
       id="linearGradient3785">
      <stop
         id="stop3787"
         offset="0"
         style="stop-color:#808080;stop-opacity:1" />
      <stop
         id="stop3789"
         offset="1"
         style="stop-color:#ffffff;stop-opacity:0;" />
    </linearGradient>
    <linearGradient
       inkscape:collect="always"
       xlink:href="#linearGradient3877"
       id="linearGradient3883"
       x1="404.5"
       y1="480.14343"
       x2="404.46875"
       y2="493.48718"
       gradientUnits="userSpaceOnUse"
       gradientTransform="translate(-4.9062463,2.4398797)" />
    <linearGradient
       inkscape:collect="always"
       xlink:href="#linearGradient3797"
       id="linearGradient3952"
       gradientUnits="userSpaceOnUse"
       gradientTransform="translate(2.0991267,-57.743476)"
       x1="395.802"
       y1="552.77002"
       x2="395.802"
       y2="568.63696" />
    <filter
       inkscape:collect="always"
       id="filter3978">
      <feGaussianBlur
         inkscape:collect="always"
         stdDeviation="2.5586825"
         id="feGaussianBlur3980" />
    </filter>
    <filter
       inkscape:collect="always"
       id="filter3996">
      <feGaussianBlur
         inkscape:collect="always"
         stdDeviation="2.5218059"
         id="feGaussianBlur3998" />
    </filter>
    <linearGradient
       inkscape:collect="always"
       xlink:href="#linearGradient3797"
       id="linearGradient4006"
       gradientUnits="userSpaceOnUse"
       gradientTransform="translate(2.0991267,-57.743476)"
       x1="395.802"
       y1="552.77002"
       x2="395.802"
       y2="568.63696" />
    <filter
       inkscape:collect="always"
       id="filter4018">
      <feGaussianBlur
         inkscape:collect="always"
         stdDeviation="0.63322404"
         id="feGaussianBlur4020" />
    </filter>
    <filter
       inkscape:collect="always"
       id="filter4030">
      <feGaussianBlur
         inkscape:collect="always"
         stdDeviation="0.51256027"
         id="feGaussianBlur4032" />
    </filter>
    <linearGradient
       inkscape:collect="always"
       xlink:href="#linearGradient3877"
       id="linearGradient3064"
       gradientUnits="userSpaceOnUse"
       gradientTransform="translate(-4.9062463,2.4398797)"
       x1="404.5"
       y1="480.14343"
       x2="404.46875"
       y2="493.48718" />
    <linearGradient
       inkscape:collect="always"
       xlink:href="#linearGradient3797"
       id="linearGradient3066"
       gradientUnits="userSpaceOnUse"
       gradientTransform="translate(2.0991267,-57.743476)"
       x1="395.802"
       y1="552.77002"
       x2="395.802"
       y2="568.63696" />
    <filter
       inkscape:collect="always"
       id="filter3900">
      <feGaussianBlur
         inkscape:collect="always"
         stdDeviation="0.821875"
         id="feGaussianBlur3902" />
    </filter>
    <filter
       inkscape:collect="always"
       id="filter3914">
      <feGaussianBlur
         inkscape:collect="always"
         stdDeviation="3.2941407"
         id="feGaussianBlur3916" />
    </filter>
    <filter
       inkscape:collect="always"
       id="filter3960">
      <feGaussianBlur
         inkscape:collect="always"
         stdDeviation="0.68531251"
         id="feGaussianBlur3962" />
    </filter>
    <linearGradient
       inkscape:collect="always"
       xlink:href="#linearGradient3888"
       id="linearGradient3973"
       gradientUnits="userSpaceOnUse"
       gradientTransform="translate(0,356.6726)"
       x1="117.90095"
       y1="233.89008"
       x2="138.30913"
       y2="256.74725" />
    <linearGradient
       inkscape:collect="always"
       xlink:href="#linearGradient3859"
       id="linearGradient3975"
       gradientUnits="userSpaceOnUse"
       gradientTransform="matrix(1,0,0,0.69983912,8.6208236,-124.28253)"
       x1="58.775547"
       y1="664.72345"
       x2="103.55692"
       y2="681.51648" />
    <filter
       inkscape:collect="always"
       id="filter4116">
      <feGaussianBlur
         inkscape:collect="always"
         stdDeviation="0.529375"
         id="feGaussianBlur4118" />
    </filter>
    <filter
       inkscape:collect="always"
       id="filter4174">
      <feGaussianBlur
         inkscape:collect="always"
         stdDeviation="0.55903443"
         id="feGaussianBlur4176" />
    </filter>
    <filter
       inkscape:collect="always"
       id="filter4233"
       x="-0.036417965"
       width="1.0728359"
       y="-0.14010801"
       height="1.280216">
      <feGaussianBlur
         inkscape:collect="always"
         stdDeviation="1.3864217"
         id="feGaussianBlur4235" />
    </filter>
    <filter
       inkscape:collect="always"
       id="filter4294"
       x="-0.061741315"
       width="1.1234826"
       y="-0.30711807"
       height="1.6142361">
      <feGaussianBlur
         inkscape:collect="always"
         stdDeviation="0.88632911"
         id="feGaussianBlur4296" />
    </filter>
    <filter
       inkscape:collect="always"
       id="filter4308">
      <feGaussianBlur
         inkscape:collect="always"
         stdDeviation="0.71776257"
         id="feGaussianBlur4310" />
    </filter>
    <filter
       inkscape:collect="always"
       id="filter4347">
      <feGaussianBlur
         inkscape:collect="always"
         stdDeviation="2.5077812"
         id="feGaussianBlur4349" />
    </filter>
    <filter
       inkscape:collect="always"
       id="filter4396">
      <feGaussianBlur
         inkscape:collect="always"
         stdDeviation="2.6130395"
         id="feGaussianBlur4398" />
    </filter>
    <filter
       inkscape:collect="always"
       id="filter4410"
       x="-0.030387992"
       width="1.060776"
       y="-0.30030486"
       height="1.6006097">
      <feGaussianBlur
         inkscape:collect="always"
         stdDeviation="1.5041288"
         id="feGaussianBlur4412" />
    </filter>
    <linearGradient
       inkscape:collect="always"
       xlink:href="#linearGradient4209"
       id="linearGradient4462"
       gradientUnits="userSpaceOnUse"
       x1="427.96271"
       y1="167.47652"
       x2="475.05969"
       y2="136.71808" />
    <linearGradient
       inkscape:collect="always"
       xlink:href="#linearGradient4162"
       id="linearGradient4464"
       gradientUnits="userSpaceOnUse"
       gradientTransform="translate(0.4375,1.625)"
       x1="564.16504"
       y1="378.02899"
       x2="536.49323"
       y2="347.72137" />
    <linearGradient
       inkscape:collect="always"
       xlink:href="#linearGradient4182"
       id="linearGradient4466"
       gradientUnits="userSpaceOnUse"
       gradientTransform="translate(0.0625,-0.96875)"
       x1="552.75"
       y1="313.11218"
       x2="529.875"
       y2="350.73718" />
    <linearGradient
       inkscape:collect="always"
       xlink:href="#linearGradient4162"
       id="linearGradient4468"
       gradientUnits="userSpaceOnUse"
       gradientTransform="translate(0.4375,1.625)"
       x1="564.16504"
       y1="378.02899"
       x2="536.49323"
       y2="347.72137" />
    <linearGradient
       inkscape:collect="always"
       xlink:href="#linearGradient4182"
       id="linearGradient4470"
       gradientUnits="userSpaceOnUse"
       gradientTransform="translate(0.0625,-0.96875)"
       x1="552.75"
       y1="313.11218"
       x2="529.875"
       y2="350.73718" />
    <linearGradient
       inkscape:collect="always"
       xlink:href="#linearGradient4339"
       id="linearGradient4472"
       gradientUnits="userSpaceOnUse"
       x1="432.25"
       y1="78.594482"
       x2="485.25"
       y2="72.094482" />
    <linearGradient
       inkscape:collect="always"
       xlink:href="#linearGradient4384"
       id="linearGradient4474"
       gradientUnits="userSpaceOnUse"
       gradientTransform="translate(-1.0908554,306.85349)"
       x1="551.01294"
       y1="111.58747"
       x2="512.12207"
       y2="93.20269" />
    <linearGradient
       inkscape:collect="always"
       xlink:href="#linearGradient4414"
       id="linearGradient4476"
       gradientUnits="userSpaceOnUse"
       x1="416.04538"
       y1="-36.687309"
       x2="417.63345"
       y2="-10.92842" />
    <linearGradient
       inkscape:collect="always"
       xlink:href="#linearGradient4209"
       id="linearGradient4478"
       gradientUnits="userSpaceOnUse"
       x1="469.87247"
       y1="434.43921"
       x2="488.34561"
       y2="435.32312" />
  </defs>
  <sodipodi:namedview
     id="base"
     pagecolor="#ffffff"
     bordercolor="#666666"
     borderopacity="1.0"
     inkscape:pageopacity="0.0"
     inkscape:pageshadow="2"
     inkscape:zoom="1.4142136"
     inkscape:cx="107.75219"
     inkscape:cy="457.07663"
     inkscape:document-units="px"
     inkscape:current-layer="layer1"
     showgrid="false"
     inkscape:window-width="1366"
     inkscape:window-height="721"
     inkscape:window-x="1278"
     inkscape:window-y="24"
     inkscape:window-maximized="1"
     showguides="true"
     inkscape:guide-bbox="true" />
  <metadata
     id="metadata7">
    <rdf:RDF>
      <cc:Work
         rdf:about="">
        <dc:format>image/svg+xml</dc:format>
        <dc:type
           rdf:resource="http://purl.org/dc/dcmitype/StillImage" />
        <dc:title></dc:title>
      </cc:Work>
    </rdf:RDF>
  </metadata>
  <g
     inkscape:label="Layer 1"
     inkscape:groupmode="layer"
     id="layer1"
     transform="translate(0,-308.2677)">
    <g
       id="g3038"
       transform="matrix(0.49362429,0,0,0.49362842,-127.3678,407.78777)"
       inkscape:export-filename="/home/matus/NetBeansProjects/TrainingLog/images/signup.png"
       inkscape:export-xdpi="90"
       inkscape:export-ydpi="90">
      <g
         style="opacity:0.45454544;fill:#000000;filter:url(#filter4030)"
         id="g4022"
         transform="matrix(0.99034978,0,0,0.95819456,4.3680263,23.095247)">
        <path
           inkscape:connector-curvature="0"
           id="path4024"
           d="m 398.83406,483.63558 c -8.75444,0 -15.84375,7.92962 -15.84375,17.74642 0,9.8168 7.08931,17.78483 15.84375,17.78483 8.75444,0 15.84375,-7.96803 15.84375,-17.78483 0,-9.8168 -7.08931,-17.74642 -15.84375,-17.74642 z m 0,3.03456 c 2.91104,0 5.26709,1.14844 5.26709,2.57362 0,1.42517 -2.35605,2.61202 -5.26709,2.61202 -2.91104,0 -5.26709,-1.18685 -5.26709,-2.61202 0,-1.42518 2.35605,-2.57362 5.26709,-2.57362 z"
           style="fill:#000000;fill-opacity:1;fill-rule:nonzero;stroke:none" />
        <path
           inkscape:connector-curvature="0"
           id="path4026"
           d="m 398.83406,484.7582 c -8.75444,0 -15.84375,7.92962 -15.84375,17.74642 0,9.8168 7.08931,17.78483 15.84375,17.78483 8.75444,0 15.84375,-7.96803 15.84375,-17.78483 0,-9.8168 -7.08931,-17.74642 -15.84375,-17.74642 z m 0,3.03456 c 2.91104,0 5.26709,1.14844 5.26709,2.57362 0,1.42517 -2.35605,2.61202 -5.26709,2.61202 -2.91104,0 -5.26709,-1.18685 -5.26709,-2.61202 0,-1.42518 2.35605,-2.57362 5.26709,-2.57362 z"
           style="fill:#000000;fill-opacity:0;fill-rule:nonzero;stroke:none" />
        <path
           style="fill:#000000;fill-opacity:1;fill-rule:nonzero;stroke:none"
           d="m 398.83406,483.63558 c -8.75444,0 -15.84375,7.92962 -15.84375,17.74642 0,9.8168 7.08931,17.78483 15.84375,17.78483 8.75444,0 15.84375,-7.96803 15.84375,-17.78483 0,-9.8168 -7.08931,-17.74642 -15.84375,-17.74642 z m 0,3.03456 c 2.91104,0 5.26709,1.14844 5.26709,2.57362 0,1.42517 -2.35605,2.61202 -5.26709,2.61202 -2.91104,0 -5.26709,-1.18685 -5.26709,-2.61202 0,-1.42518 2.35605,-2.57362 5.26709,-2.57362 z"
           id="path4028"
           inkscape:connector-curvature="0" />
      </g>
      <g
         transform="translate(0,2)"
         id="g3939">
        <path
           style="fill:#aca793;fill-opacity:1;fill-rule:nonzero;stroke:none"
           d="m 398.83406,483.63558 c -8.75444,0 -15.84375,7.92962 -15.84375,17.74642 0,9.8168 7.08931,17.78483 15.84375,17.78483 8.75444,0 15.84375,-7.96803 15.84375,-17.78483 0,-9.8168 -7.08931,-17.74642 -15.84375,-17.74642 z m 0,3.03456 c 2.91104,0 5.26709,1.14844 5.26709,2.57362 0,1.42517 -2.35605,2.61202 -5.26709,2.61202 -2.91104,0 -5.26709,-1.18685 -5.26709,-2.61202 0,-1.42518 2.35605,-2.57362 5.26709,-2.57362 z"
           id="path3811"
           inkscape:connector-curvature="0" />
        <path
           style="fill:#f2f2f2;fill-opacity:0;fill-rule:nonzero;stroke:none"
           d="m 398.83406,484.7582 c -8.75444,0 -15.84375,7.92962 -15.84375,17.74642 0,9.8168 7.08931,17.78483 15.84375,17.78483 8.75444,0 15.84375,-7.96803 15.84375,-17.78483 0,-9.8168 -7.08931,-17.74642 -15.84375,-17.74642 z m 0,3.03456 c 2.91104,0 5.26709,1.14844 5.26709,2.57362 0,1.42517 -2.35605,2.61202 -5.26709,2.61202 -2.91104,0 -5.26709,-1.18685 -5.26709,-2.61202 0,-1.42518 2.35605,-2.57362 5.26709,-2.57362 z"
           id="path3885"
           inkscape:connector-curvature="0" />
        <path
           inkscape:connector-curvature="0"
           id="path3828"
           d="m 398.83406,483.63558 c -8.75444,0 -15.84375,7.92962 -15.84375,17.74642 0,9.8168 7.08931,17.78483 15.84375,17.78483 8.75444,0 15.84375,-7.96803 15.84375,-17.78483 0,-9.8168 -7.08931,-17.74642 -15.84375,-17.74642 z m 0,3.03456 c 2.91104,0 5.26709,1.14844 5.26709,2.57362 0,1.42517 -2.35605,2.61202 -5.26709,2.61202 -2.91104,0 -5.26709,-1.18685 -5.26709,-2.61202 0,-1.42518 2.35605,-2.57362 5.26709,-2.57362 z"
           style="fill:url(#linearGradient3064);fill-opacity:1;fill-rule:nonzero;stroke:none" />
      </g>
      <g
         transform="matrix(1,0,0,0.83572457,0,82.760387)"
         id="g3958">
        <rect
           ry="36.379711"
           y="505.79041"
           x="300.54245"
           height="230.43747"
           width="200.58322"
           id="rect3755"
           style="fill:#99632b;fill-opacity:1;fill-rule:nonzero;stroke:none"
           rx="30.403673" />
        <rect
           rx="30.403673"
           style="fill:#d1b789;fill-opacity:1;fill-rule:nonzero;stroke:none"
           id="rect2985"
           width="200.58322"
           height="230.43747"
           x="298.54245"
           y="195.52271"
           transform="translate(0,308.2677)"
           ry="36.379711" />
      </g>
      <g
         id="g4008">
        <path
           transform="matrix(0.92851207,0,0,0.87030475,30.483281,355.43445)"
           sodipodi:nodetypes="ccscssccc"
           inkscape:connector-curvature="0"
           id="path3994"
           d="m 318.75,350.34448 -2.25,27.25 c 0,0 46.67943,1.57039 55.5,-0.5 5.7001,-1.33794 81.75,2 81.75,2 0,0 28.38937,1.12906 30,-0.75 0.375,-0.4375 -4.73485,-147.30309 -1.8125,-167.875 0.11461,-0.8068 -143.1875,49.375 -143.1875,49.375 l -20,91.5 z"
           style="fill:#333333;fill-opacity:1;stroke:none;filter:url(#filter3996)" />
        <path
           style="fill:#e6e6e6;fill-opacity:1;stroke:none"
           d="m 313.51347,209.96369 162.72295,5.92203 -4.94975,158.74547 -160.15969,-2.82843 c 0,0 10.42983,-120.03138 2.38649,-161.83907 z"
           id="path3990"
           inkscape:connector-curvature="0"
           transform="translate(0,308.2677)"
           sodipodi:nodetypes="ccccc" />
        <path
           style="fill:#e6e6e6;fill-opacity:1;stroke:none"
           d="m 318.75,350.34448 -2.25,27.25 c 0,0 46.67943,1.57039 55.5,-0.5 5.7001,-1.33794 81.75,2 81.75,2 0,0 28.38937,1.12906 30,-0.75 0.375,-0.4375 -4.73485,-147.30309 -1.8125,-167.875 0.11461,-0.8068 -143.1875,49.375 -143.1875,49.375 l -20,91.5 z"
           id="path3992"
           inkscape:connector-curvature="0"
           sodipodi:nodetypes="ccscssccc"
           transform="translate(0,308.2677)" />
        <g
           id="g3986">
          <path
             style="fill:#333333;fill-opacity:1;stroke:none;filter:url(#filter3978)"
             d="m 317.32354,211.71364 c 0,0 127.28426,2.17061 162.30925,-7.3044 0,0 -5.26112,143.83758 0.20327,171.53691 C 480.01782,376.86751 314,373.282 314,373.282 c 8.57583,-41.92136 3.32354,-161.56836 3.32354,-161.56836 z"
             id="path3972"
             inkscape:connector-curvature="0"
             transform="matrix(0.99961982,0,0,0.97909745,0.20705928,314.77046)"
             sodipodi:nodetypes="csssc" />
          <path
             sodipodi:nodetypes="csssc"
             inkscape:connector-curvature="0"
             id="path3962"
             d="m 316.5,212.59448 c 0,0 127.47501,1.47501 162.5,-8 0,0 -1.46439,144.30067 4,172 0.18176,0.92136 -169,-2.5 -169,-2.5 2.20945,-28.51547 2.5,-161.5 2.5,-161.5 z"
             style="fill:#f9f9f9;fill-opacity:1;stroke:none"
             transform="translate(0,308.2677)" />
        </g>
      </g>
      <g
         id="g4000"
         transform="matrix(1,0,0,1.1356736,2.4542129,-66.493335)">
        <rect
           transform="matrix(0.99942051,0,0,0.83478351,0.26089429,85.004054)"
           style="fill:#333333;fill-opacity:1;fill-rule:nonzero;stroke:none;filter:url(#filter4018)"
           id="rect4016"
           width="106.35575"
           height="25.18952"
           x="343.86044"
           y="498.74271"
           rx="4.0185685"
           ry="3.737951" />
        <rect
           ry="3.1203802"
           rx="4.0162396"
           y="496.98163"
           x="343.86044"
           height="25.18952"
           width="106.35575"
           id="rect4002"
           style="fill:#98937f;fill-opacity:1;fill-rule:nonzero;stroke:none" />
      </g>
      <g
         transform="matrix(1,0,0,1.1111111,0.23324203,-55.313932)"
         id="g3805">
        <rect
           style="fill:#aca793;fill-opacity:1;fill-rule:nonzero;stroke:none"
           id="rect3757"
           width="106.35575"
           height="25.18952"
           x="345.42294"
           y="497.82538"
           rx="4.0162396"
           ry="3.1893599" />
        <rect
           ry="3.1893599"
           rx="4.0162396"
           y="497.82538"
           x="345.42294"
           height="25.18952"
           width="106.35575"
           id="rect3759"
           style="fill:url(#linearGradient3066);fill-opacity:1;fill-rule:nonzero;stroke:none" />
      </g>
    </g>
    <g
       id="g3964"
       transform="matrix(0.56417489,0,0,0.53839524,-5.2644538,233.37223)"
       inkscape:export-filename="/home/matus/NetBeansProjects/TrainingLog/images/signup.png"
       inkscape:export-xdpi="90"
       inkscape:export-ydpi="90">
      <g
         id="g3918">
        <path
           style="fill:#333333;fill-opacity:1;fill-rule:nonzero;stroke:none"
           d="m 133.40625,592.5476 c -10.0474,0 -18.1875,8.1401 -18.1875,18.1875 0,10.0474 8.1401,18.1875 18.1875,18.1875 10.0474,0 18.1875,-8.1401 18.1875,-18.1875 0,-10.0474 -8.1401,-18.1875 -18.1875,-18.1875 z m 0,6.28125 c 6.56946,0 11.90625,5.33679 11.90625,11.90625 0,6.56946 -5.33679,11.90625 -11.90625,11.90625 -6.56946,0 -11.875,-5.33679 -11.875,-11.90625 0,-6.56946 5.30554,-11.90625 11.875,-11.90625 z"
           id="path3875"
           inkscape:connector-curvature="0" />
        <path
           style="fill:url(#linearGradient3973);fill-opacity:1;fill-rule:nonzero;stroke:none;filter:url(#filter3900)"
           d="m 133.40625,594.2976 c -9.08131,0 -16.4375,7.35619 -16.4375,16.4375 0,9.08131 7.35619,16.4375 16.4375,16.4375 9.08131,0 16.4375,-7.35619 16.4375,-16.4375 0,-9.08131 -7.35619,-16.4375 -16.4375,-16.4375 z m 0,2.5625 c 7.66436,0 13.875,6.21064 13.875,13.875 0,7.66436 -6.21064,13.875 -13.875,13.875 -7.66436,0 -13.875,-6.21064 -13.875,-13.875 0,-7.66436 6.21064,-13.875 13.875,-13.875 z"
           id="path3879"
           inkscape:connector-curvature="0" />
      </g>
      <rect
         transform="translate(0,308.2677)"
         y="334.92059"
         x="88.396561"
         height="43.869511"
         width="90.379944"
         id="rect3958"
         style="fill:#999999;fill-opacity:1;fill-rule:nonzero;stroke:none" />
      <path
         inkscape:connector-curvature="0"
         id="rect3934"
         d="m 89.19675,643.93868 0,44.71875 92.34375,0 0,-44.71875 -92.34375,0 z m 31.125,8.3125 c 3.96649,2e-5 6.88282,1.00673 8.78125,2.96875 1.90899,1.96206 2.87498,4.96875 2.875,9.0625 -2e-5,4.06196 -0.96601,7.06921 -2.875,9.03125 -1.89843,1.96204 -4.81476,2.96875 -8.78125,2.96875 -3.97712,0 -6.92414,-0.96542 -8.84375,-2.90625 -1.90901,-1.95143 -2.875,-4.99997 -2.875,-9.09375 0,-4.08315 0.96599,-7.10044 2.875,-9.0625 1.90901,-1.97262 4.85603,-2.96873 8.84375,-2.96875 z m 14.65625,0.3125 4.53125,0 0,14.46875 7.28125,-8.25 5.75,0 -7.9375,8.40625 7.9375,8.75 -6.09375,0 -6.9375,-8.3125 0,8.3125 -4.53125,0 0,-23.375 z m -37.125,0.59375 4.90625,0 c 0.89053,2e-5 1.60371,0.18109 2.125,0.59375 0.39096,0.32583 0.63186,0.71234 0.71875,1.125 0.0869,0.41271 0.12499,0.7775 0.125,1.125 l 0,19.9375 -4.3125,0 0,-17.8125 c 0,-0.19546 -0.01,-0.40778 -0.0312,-0.625 -0.0217,-0.2389 -0.0789,-0.41044 -0.1875,-0.5625 -0.1086,-0.17374 -0.25421,-0.29076 -0.40625,-0.3125 -0.13032,-0.0434 -0.26374,-0.0625 -0.4375,-0.0625 l -2.5,0 0,-3.40625 z m 22.4375,3 c -2.21659,2e-5 -3.8457,0.64307 -4.90625,1.96875 -1.04996,1.32572 -1.59376,3.37759 -1.59375,6.15625 -10e-6,2.75747 0.54379,4.7993 1.59375,6.125 1.06055,1.32571 2.68966,2 4.90625,2 2.21656,0 3.84567,-0.67429 4.90625,-2 1.06054,-1.3257 1.59373,-3.36753 1.59375,-6.125 -2e-5,-2.77866 -0.53321,-4.83053 -1.59375,-6.15625 -1.06058,-1.32568 -2.68969,-1.96873 -4.90625,-1.96875 z m 42,2.625 8.25,0 0,16.5625 c -2e-5,2.34384 -0.51256,4.05326 -1.5625,5.15625 -1.04997,1.11358 -2.67908,1.68749 -4.90625,1.6875 l -8.90625,0 0,-3.5 8.125,0 c 0.86965,0 1.53334,-0.20078 2,-0.625 0.46663,-0.41362 0.68749,-1.01708 0.6875,-1.8125 l 0,-0.3125 -3.6875,0 c -1.89841,0 -3.25591,-0.1199 -4.09375,-0.40625 -0.83785,-0.28635 -1.62257,-0.77938 -2.34375,-1.46875 -0.80603,-0.753 -1.42957,-1.70838 -1.875,-2.875 -0.44544,-1.16661 -0.65625,-2.43433 -0.65625,-3.78125 0,-1.3363 0.22142,-2.55269 0.65625,-3.6875 0.44543,-1.14539 1.05836,-2.12142 1.875,-2.90625 0.72118,-0.71056 1.57617,-1.24432 2.5625,-1.5625 0.99692,-0.31815 2.28415,-0.46873 3.875,-0.46875 z m 1.34375,3.6875 c -1.17723,10e-6 -1.96139,0.0402 -2.375,0.125 -0.44544,0.0743 -0.86877,0.2254 -1.21875,0.4375 -0.69998,0.41363 -1.20248,0.95629 -1.53125,1.65625 -0.31817,0.69998 -0.46876,1.60517 -0.46875,2.71875 -1e-5,1.83478 0.40211,3.12201 1.21875,3.875 0.40301,0.3606 0.96631,0.65285 1.6875,0.84375 0.73178,0.1909 1.62693,0.28125 2.6875,0.28125 l 2.34375,0 0,-9.9375 -2.34375,0 z"
         style="fill:#000000;fill-opacity:1;fill-rule:nonzero;stroke:none;filter:url(#filter3960)" />
      <path
         id="path3068"
         transform="translate(0,308.2677)"
         d="m 98.1875,304.6875 -53.40625,82.90625 71.84375,0 33.5625,0 71.84375,0 -53.1875,-82.90625 -70.65625,0 z m 21.34375,38.53125 c 3.96649,2e-5 6.88282,1.00673 8.78125,2.96875 1.90899,1.96206 2.87498,4.96875 2.875,9.0625 -2e-5,4.06196 -0.96601,7.06921 -2.875,9.03125 -1.89843,1.96204 -4.81476,2.96875 -8.78125,2.96875 -3.97712,0 -6.92414,-0.96542 -8.84375,-2.90625 -1.90901,-1.95143 -2.875,-4.99997 -2.875,-9.09375 0,-4.08315 0.96599,-7.10044 2.875,-9.0625 1.90901,-1.97262 4.85603,-2.96873 8.84375,-2.96875 z m 14.65625,0.3125 4.53125,0 0,14.46875 7.28125,-8.25 5.75,0 -7.9375,8.40625 7.9375,8.75 -6.09375,0 -6.9375,-8.3125 0,8.3125 -4.53125,0 0,-23.375 z m -37.125,0.59375 4.90625,0 c 0.89053,2e-5 1.60371,0.18109 2.125,0.59375 0.39096,0.32583 0.63186,0.71234 0.71875,1.125 0.0869,0.41271 0.12499,0.7775 0.125,1.125 l 0,19.9375 -4.3125,0 0,-17.8125 c 0,-0.19546 -0.01,-0.40778 -0.0312,-0.625 -0.0217,-0.2389 -0.0789,-0.41044 -0.1875,-0.5625 -0.1086,-0.17374 -0.25421,-0.29076 -0.40625,-0.3125 -0.130325,-0.0434 -0.26374,-0.0625 -0.4375,-0.0625 l -2.5,0 0,-3.40625 z m 22.4375,3 c -2.21659,2e-5 -3.8457,0.64307 -4.90625,1.96875 -1.04996,1.32572 -1.59376,3.37759 -1.59375,6.15625 -1e-5,2.75747 0.54379,4.7993 1.59375,6.125 1.06055,1.32571 2.68966,2 4.90625,2 2.21656,0 3.84567,-0.67429 4.90625,-2 1.06054,-1.3257 1.59373,-3.36753 1.59375,-6.125 -2e-5,-2.77866 -0.53321,-4.83053 -1.59375,-6.15625 -1.06058,-1.32568 -2.68969,-1.96873 -4.90625,-1.96875 z m 42,2.625 8.25,0 0,16.5625 c -2e-5,2.34384 -0.51256,4.05326 -1.5625,5.15625 -1.04997,1.11358 -2.67908,1.68749 -4.90625,1.6875 l -8.90625,0 0,-3.5 8.125,0 c 0.86965,0 1.53334,-0.20078 2,-0.625 0.46663,-0.41362 0.68749,-1.01708 0.6875,-1.8125 l 0,-0.3125 -3.6875,0 c -1.89841,0 -3.25591,-0.1199 -4.09375,-0.40625 -0.83785,-0.28635 -1.62257,-0.77938 -2.34375,-1.46875 -0.80603,-0.753 -1.42957,-1.70838 -1.875,-2.875 -0.44544,-1.16661 -0.65625,-2.43433 -0.65625,-3.78125 0,-1.3363 0.22142,-2.55269 0.65625,-3.6875 0.44543,-1.14539 1.05836,-2.12142 1.875,-2.90625 0.72118,-0.71056 1.57617,-1.24432 2.5625,-1.5625 0.99692,-0.31815 2.28415,-0.46873 3.875,-0.46875 z m 1.34375,3.6875 c -1.17723,10e-6 -1.96139,0.0402 -2.375,0.125 -0.44544,0.0743 -0.86877,0.2254 -1.21875,0.4375 -0.69998,0.41363 -1.20248,0.95629 -1.53125,1.65625 -0.31817,0.69998 -0.46876,1.60517 -0.46875,2.71875 -1e-5,1.83478 0.40211,3.12201 1.21875,3.875 0.40301,0.3606 0.96631,0.65285 1.6875,0.84375 0.73178,0.1909 1.62693,0.28125 2.6875,0.28125 l 2.34375,0 0,-9.9375 -2.34375,0 z"
         style="fill:#333333;stroke:none"
         inkscape:connector-curvature="0" />
      <path
         id="path3841"
         transform="translate(0,308.2677)"
         d="m 107.53125,304.6875 -43.84375,82.90625 39.65625,0 32.1875,0 1.375,0 32.1875,0 39.65625,0 -43.84375,-82.90625 -28,0 -29.375,0 z m 12,38.53125 c 3.96649,2e-5 6.88282,1.00673 8.78125,2.96875 1.90899,1.96206 2.87498,4.96875 2.875,9.0625 -2e-5,4.06196 -0.96601,7.06921 -2.875,9.03125 -1.89843,1.96204 -4.81476,2.96875 -8.78125,2.96875 -3.97712,0 -6.92414,-0.96542 -8.84375,-2.90625 -1.90901,-1.95143 -2.875,-4.99997 -2.875,-9.09375 0,-4.08315 0.96599,-7.10044 2.875,-9.0625 1.90901,-1.97262 4.85603,-2.96873 8.84375,-2.96875 z m 14.65625,0.3125 4.53125,0 0,14.46875 7.28125,-8.25 5.75,0 -7.9375,8.40625 7.9375,8.75 -6.09375,0 -6.9375,-8.3125 0,8.3125 -4.53125,0 0,-23.375 z m -37.125,0.59375 4.90625,0 c 0.89053,2e-5 1.60371,0.18109 2.125,0.59375 0.39096,0.32583 0.63186,0.71234 0.71875,1.125 0.0869,0.41271 0.12499,0.7775 0.125,1.125 l 0,19.9375 -4.3125,0 0,-17.8125 c 0,-0.19546 -0.01,-0.40778 -0.0312,-0.625 -0.0217,-0.2389 -0.0789,-0.41044 -0.1875,-0.5625 -0.1086,-0.17374 -0.25421,-0.29076 -0.40625,-0.3125 -0.130325,-0.0434 -0.26374,-0.0625 -0.4375,-0.0625 l -2.5,0 0,-3.40625 z m 22.4375,3 c -2.21659,2e-5 -3.8457,0.64307 -4.90625,1.96875 -1.04996,1.32572 -1.59376,3.37759 -1.59375,6.15625 -1e-5,2.75747 0.54379,4.7993 1.59375,6.125 1.06055,1.32571 2.68966,2 4.90625,2 2.21656,0 3.84567,-0.67429 4.90625,-2 1.06054,-1.3257 1.59373,-3.36753 1.59375,-6.125 -2e-5,-2.77866 -0.53321,-4.83053 -1.59375,-6.15625 -1.06058,-1.32568 -2.68969,-1.96873 -4.90625,-1.96875 z m 42,2.625 8.25,0 0,16.5625 c -2e-5,2.34384 -0.51256,4.05326 -1.5625,5.15625 -1.04997,1.11358 -2.67908,1.68749 -4.90625,1.6875 l -8.90625,0 0,-3.5 8.125,0 c 0.86965,0 1.53334,-0.20078 2,-0.625 0.46663,-0.41362 0.68749,-1.01708 0.6875,-1.8125 l 0,-0.3125 -3.6875,0 c -1.89841,0 -3.25591,-0.1199 -4.09375,-0.40625 -0.83785,-0.28635 -1.62257,-0.77938 -2.34375,-1.46875 -0.80603,-0.753 -1.42957,-1.70838 -1.875,-2.875 -0.44544,-1.16661 -0.65625,-2.43433 -0.65625,-3.78125 0,-1.3363 0.22142,-2.55269 0.65625,-3.6875 0.44543,-1.14539 1.05836,-2.12142 1.875,-2.90625 0.72118,-0.71056 1.57617,-1.24432 2.5625,-1.5625 0.99692,-0.31815 2.28415,-0.46873 3.875,-0.46875 z m 1.34375,3.6875 c -1.17723,10e-6 -1.96139,0.0402 -2.375,0.125 -0.44544,0.0743 -0.86877,0.2254 -1.21875,0.4375 -0.69998,0.41363 -1.20248,0.95629 -1.53125,1.65625 -0.31817,0.69998 -0.46876,1.60517 -0.46875,2.71875 -1e-5,1.83478 0.40211,3.12201 1.21875,3.875 0.40301,0.3606 0.96631,0.65285 1.6875,0.84375 0.73178,0.1909 1.62693,0.28125 2.6875,0.28125 l 2.34375,0 0,-9.9375 -2.34375,0 z"
         style="fill:url(#linearGradient3975);fill-opacity:1;stroke:none;filter:url(#filter3914)"
         inkscape:connector-curvature="0" />
    </g>
    <g
       id="g4424"
       transform="matrix(0.62855379,0,0,0.6222502,-240.42843,197.9886)"
       inkscape:export-filename="/home/matus/NetBeansProjects/TrainingLog/images/signup.png"
       inkscape:export-xdpi="90"
       inkscape:export-ydpi="90">
      <g
         transform="matrix(0.74885446,0,0,0.67723036,113.04329,144.06945)"
         id="g3993">
        <rect
           style="fill:#99632b;fill-opacity:1;fill-rule:nonzero;stroke:none"
           id="rect3977"
           width="212.42078"
           height="11.874454"
           x="402.32959"
           y="533.26715" />
        <g
           id="g3989">
          <path
             inkscape:connector-curvature="0"
             id="path3983"
             transform="translate(0,308.2677)"
             d="M 435.59375,159.125 402.34375,225 492,225 l 33.09375,0 89.6875,0 -33.28125,-65.875 -56.40625,0 -33.09375,0 -56.40625,0 z"
             style="fill:#160b09;fill-opacity:1;stroke:none" />
          <path
             transform="translate(0,308.2677)"
             style="fill:#5f461e;fill-opacity:1;stroke:none"
             d="M 435.59375,159.125 402.34375,225 492,225 l 33.09375,0 89.6875,0 -33.28125,-65.875 -56.40625,0 -33.09375,0 -56.40625,0 z"
             id="path4002"
             inkscape:connector-curvature="0" />
        </g>
      </g>
      <g
         id="g4076">
        <rect
           style="fill:#99632b;fill-opacity:1;fill-rule:nonzero;stroke:none"
           id="rect4000"
           width="121.05345"
           height="29.529154"
           x="433.35056"
           y="467.12195" />
        <path
           style="fill:#5f461e;fill-opacity:1;stroke:none"
           d="m 448.40625,131.90625 -15.0625,26.96875 34.0625,0 43.21875,0 9.71875,0 34.0625,0 -15.0625,-26.96875 -33.5625,0 -28.5,0 -28.875,0 z"
           transform="translate(0,308.2677)"
           id="path4002-5"
           inkscape:connector-curvature="0" />
      </g>
      <g
         id="g4063">
        <path
           sodipodi:type="arc"
           style="fill:#a5620b;fill-opacity:1;fill-rule:nonzero;stroke:none"
           id="path4060"
           sodipodi:cx="493.61444"
           sodipodi:cy="139.81673"
           sodipodi:rx="45.683662"
           sodipodi:ry="11.874454"
           d="m 539.2981,139.81673 c 0,6.55808 -20.45327,11.87445 -45.68366,11.87445 -25.23039,0 -45.68366,-5.31637 -45.68366,-11.87445 0,-6.55808 20.45327,-11.87446 45.68366,-11.87446 25.23039,0 45.68366,5.31638 45.68366,11.87446 z"
           transform="matrix(1.0376617,0,0,1.118204,-18.271436,294.97676)" />
        <path
           transform="matrix(1.0346667,0,0,1.0346667,-16.861477,305.73314)"
           d="m 539.2981,139.81673 c 0,6.55808 -20.45327,11.87445 -45.68366,11.87445 -25.23039,0 -45.68366,-5.31637 -45.68366,-11.87445 0,-6.55808 20.45327,-11.87446 45.68366,-11.87446 25.23039,0 45.68366,5.31638 45.68366,11.87446 z"
           sodipodi:ry="11.874454"
           sodipodi:rx="45.683662"
           sodipodi:cy="139.81673"
           sodipodi:cx="493.61444"
           id="path4047"
           style="fill:#d19211;fill-opacity:1;fill-rule:nonzero;stroke:none"
           sodipodi:type="arc" />
        <path
           sodipodi:type="arc"
           style="fill:#e9af39;fill-opacity:1;fill-rule:nonzero;stroke:none"
           id="path4045"
           sodipodi:cx="493.61444"
           sodipodi:cy="139.81673"
           sodipodi:rx="45.683662"
           sodipodi:ry="11.874454"
           d="m 539.2981,139.81673 c 0,6.55808 -20.45327,11.87445 -45.68366,11.87445 -25.23039,0 -45.68366,-5.31637 -45.68366,-11.87445 0,-6.55808 20.45327,-11.87446 45.68366,-11.87446 25.23039,0 45.68366,5.31638 45.68366,11.87446 z"
           transform="matrix(0.91566341,0,0,1.0444286,41.880212,301.81991)" />
        <path
           transform="matrix(0.91566341,0,0,1.0444286,46.130212,301.81991)"
           d="m 539.2981,139.81673 c 0,6.55808 -20.45327,11.87445 -45.68366,11.87445 -25.23039,0 -45.68366,-5.31637 -45.68366,-11.87445 0,-6.55808 20.45327,-11.87446 45.68366,-11.87446 25.23039,0 45.68366,5.31638 45.68366,11.87446 z"
           sodipodi:ry="11.874454"
           sodipodi:rx="45.683662"
           sodipodi:cy="139.81673"
           sodipodi:cx="493.61444"
           id="path4207"
           style="fill:url(#linearGradient4462);fill-opacity:1;fill-rule:nonzero;stroke:none;filter:url(#filter4233)"
           sodipodi:type="arc" />
      </g>
      <g
         id="g4190">
        <path
           style="font-size:medium;font-style:normal;font-variant:normal;font-weight:normal;font-stretch:normal;text-indent:0;text-align:start;text-decoration:none;line-height:normal;letter-spacing:normal;word-spacing:normal;text-transform:none;direction:ltr;block-progression:tb;writing-mode:lr-tb;text-anchor:start;baseline-shift:baseline;color:#000000;fill:#e9af39;fill-opacity:1;stroke:none;stroke-width:1px;marker:none;visibility:visible;display:inline;overflow:visible;enable-background:accumulate;font-family:Sans;-inkscape-font-specification:Sans"
           d="m 546.9375,319.71875 c -8.77438,2.83579 -12.30153,12.80241 -16.66596,20.05068 -2.18077,3.78412 -4.75434,8.05436 1.47846,8.60557 4.27544,-8.27955 7.6756,-18.4105 15.78125,-23.65625 3.3859,1.44549 3.14982,6.99028 3.875,10.125 1.30452,21.54441 -7.84546,44.00135 -24.4375,57.625 -2.9896,2.77036 -10.50648,6.57081 -8.90643,8.39139 1.61363,1.62018 7.13231,-1.10566 9.71893,-2.82889 18.73959,-13.56599 28.86472,-37.20413 28.8125,-60.125 -0.61323,-6.20308 -0.60683,-15.07541 -7.1875,-18 -0.79616,-0.27093 -1.64149,-0.25601 -2.46875,-0.1875 z"
           id="path4129"
           inkscape:connector-curvature="0"
           sodipodi:nodetypes="ccccccccccc" />
        <path
           style="font-size:medium;font-style:normal;font-variant:normal;font-weight:normal;font-stretch:normal;text-indent:0;text-align:start;text-decoration:none;line-height:normal;letter-spacing:normal;word-spacing:normal;text-transform:none;direction:ltr;block-progression:tb;writing-mode:lr-tb;text-anchor:start;baseline-shift:baseline;color:#000000;fill:url(#linearGradient4464);fill-opacity:1;stroke:none;stroke-width:1px;marker:none;visibility:visible;display:inline;overflow:visible;filter:url(#filter4174);enable-background:accumulate;font-family:Sans;-inkscape-font-specification:Sans"
           d="m 546.16632,322.88794 c -9.36053,3.96081 -11.54228,15.52691 -16.3125,23.65625 -0.0214,3.63116 2.76125,-2.90293 3.125,-3.8125 3.33293,-7.19678 10.51043,-16.48628 14.5,-17.5625 3.13199,-0.84487 6.08929,6.22182 5.9375,15.4375 0.036,23.71511 -11.44178,47.33463 -31.41632,59.95581 14.46891,-6.71266 24.38458,-21.40121 29.53033,-35.97947 3.64477,-12.18181 6.59164,-26.36262 1.54642,-38.45267 -0.92942,-2.24385 -3.63163,-4.51238 -6.91043,-3.24242 z"
           id="path4150"
           inkscape:connector-curvature="0"
           sodipodi:nodetypes="cccsccccc" />
        <path
           sodipodi:nodetypes="cccsccccc"
           inkscape:connector-curvature="0"
           id="path4178"
           d="m 546.22882,321.91919 c -9.36053,3.96081 -11.54228,15.52691 -16.3125,23.65625 -0.0214,3.63116 2.76125,-2.90293 3.125,-3.8125 3.33293,-7.19678 10.51043,-16.48628 14.5,-17.5625 3.13199,-0.84487 6.08929,6.22182 5.9375,15.4375 0.036,23.71511 -11.44178,47.33463 -31.41632,59.95581 14.46891,-6.71266 24.38458,-21.40121 29.53033,-35.97947 3.64477,-12.18181 6.59164,-26.36262 1.54642,-38.45267 -0.92942,-2.24385 -3.63163,-4.51238 -6.91043,-3.24242 z"
           style="font-size:medium;font-style:normal;font-variant:normal;font-weight:normal;font-stretch:normal;text-indent:0;text-align:start;text-decoration:none;line-height:normal;letter-spacing:normal;word-spacing:normal;text-transform:none;direction:ltr;block-progression:tb;writing-mode:lr-tb;text-anchor:start;baseline-shift:baseline;color:#000000;fill:url(#linearGradient4466);fill-opacity:1;stroke:none;stroke-width:1px;marker:none;visibility:visible;display:inline;overflow:visible;filter:url(#filter4174);enable-background:accumulate;font-family:Sans;-inkscape-font-specification:Sans" />
      </g>
      <g
         transform="matrix(-1,0,0,1,987.0121,0)"
         id="g4195">
        <path
           sodipodi:nodetypes="ccccccccccc"
           inkscape:connector-curvature="0"
           id="path4197"
           d="m 546.9375,319.71875 c -8.77438,2.83579 -12.30153,12.80241 -16.66596,20.05068 -2.18077,3.78412 -4.75434,8.05436 1.47846,8.60557 4.27544,-8.27955 7.6756,-18.4105 15.78125,-23.65625 3.3859,1.44549 3.14982,6.99028 3.875,10.125 1.30452,21.54441 -7.84546,44.00135 -24.4375,57.625 -2.9896,2.77036 -10.50648,6.57081 -8.90643,8.39139 1.61363,1.62018 7.13231,-1.10566 9.71893,-2.82889 18.73959,-13.56599 28.86472,-37.20413 28.8125,-60.125 -0.61323,-6.20308 -0.60683,-15.07541 -7.1875,-18 -0.79616,-0.27093 -1.64149,-0.25601 -2.46875,-0.1875 z"
           style="font-size:medium;font-style:normal;font-variant:normal;font-weight:normal;font-stretch:normal;text-indent:0;text-align:start;text-decoration:none;line-height:normal;letter-spacing:normal;word-spacing:normal;text-transform:none;direction:ltr;block-progression:tb;writing-mode:lr-tb;text-anchor:start;baseline-shift:baseline;color:#000000;fill:#e9af39;fill-opacity:1;stroke:none;stroke-width:1px;marker:none;visibility:visible;display:inline;overflow:visible;enable-background:accumulate;font-family:Sans;-inkscape-font-specification:Sans" />
        <path
           sodipodi:nodetypes="cccsccccc"
           inkscape:connector-curvature="0"
           id="path4199"
           d="m 546.16632,322.88794 c -9.36053,3.96081 -11.54228,15.52691 -16.3125,23.65625 -0.0214,3.63116 2.76125,-2.90293 3.125,-3.8125 3.33293,-7.19678 10.51043,-16.48628 14.5,-17.5625 3.13199,-0.84487 6.08929,6.22182 5.9375,15.4375 0.036,23.71511 -11.44178,47.33463 -31.41632,59.95581 14.46891,-6.71266 24.38458,-21.40121 29.53033,-35.97947 3.64477,-12.18181 6.59164,-26.36262 1.54642,-38.45267 -0.92942,-2.24385 -3.63163,-4.51238 -6.91043,-3.24242 z"
           style="font-size:medium;font-style:normal;font-variant:normal;font-weight:normal;font-stretch:normal;text-indent:0;text-align:start;text-decoration:none;line-height:normal;letter-spacing:normal;word-spacing:normal;text-transform:none;direction:ltr;block-progression:tb;writing-mode:lr-tb;text-anchor:start;baseline-shift:baseline;color:#000000;fill:url(#linearGradient4468);fill-opacity:1;stroke:none;stroke-width:1px;marker:none;visibility:visible;display:inline;overflow:visible;filter:url(#filter4174);enable-background:accumulate;font-family:Sans;-inkscape-font-specification:Sans" />
        <path
           style="font-size:medium;font-style:normal;font-variant:normal;font-weight:normal;font-stretch:normal;text-indent:0;text-align:start;text-decoration:none;line-height:normal;letter-spacing:normal;word-spacing:normal;text-transform:none;direction:ltr;block-progression:tb;writing-mode:lr-tb;text-anchor:start;baseline-shift:baseline;color:#000000;fill:url(#linearGradient4470);fill-opacity:1;stroke:none;stroke-width:1px;marker:none;visibility:visible;display:inline;overflow:visible;filter:url(#filter4174);enable-background:accumulate;font-family:Sans;-inkscape-font-specification:Sans"
           d="m 546.22882,321.91919 c -9.36053,3.96081 -11.54228,15.52691 -16.3125,23.65625 -0.0214,3.63116 2.76125,-2.90293 3.125,-3.8125 3.33293,-7.19678 10.51043,-16.48628 14.5,-17.5625 3.13199,-0.84487 6.08929,6.22182 5.9375,15.4375 0.036,23.71511 -11.44178,47.33463 -31.41632,59.95581 14.46891,-6.71266 24.38458,-21.40121 29.53033,-35.97947 3.64477,-12.18181 6.59164,-26.36262 1.54642,-38.45267 -0.92942,-2.24385 -3.63163,-4.51238 -6.91043,-3.24242 z"
           id="path4201"
           inkscape:connector-curvature="0"
           sodipodi:nodetypes="cccsccccc" />
      </g>
      <g
         id="g4122">
        <rect
           style="fill:#d19211;fill-opacity:1;fill-rule:nonzero;stroke:none"
           id="rect4111"
           width="73.008774"
           height="48.790367"
           x="458.2052"
           y="18.249371"
           transform="translate(0,308.2677)" />
        <path
           style="fill:#000000;fill-opacity:0.40776702;fill-rule:nonzero;stroke:none;filter:url(#filter4116)"
           d="m 466.6435,327.10518 0,47.1875 58.6875,0 0,-47.1875 -58.6875,0 z m 27.65625,5.96875 5.28125,14.25 16.3125,0.34375 -13.03125,9.09375 4.625,14.4375 -13.34375,-8.625 -13.4375,8.59375 4.8125,-14.4375 -12.9375,-9.125 16.3125,-0.28125 5.40625,-14.25 z"
           id="rect4113"
           inkscape:connector-curvature="0" />
        <g
           id="g4082"
           transform="translate(-0.14658147,0)">
          <path
             style="fill:#e9af39;fill-opacity:1;stroke:none"
             d="m 452.03125,5.09375 c 0,0 -20.90919,55.37439 36.21875,114.5 2.53531,2.62397 4.36658,3.36311 5.6875,3.25 1.32091,0.11311 3.15219,-0.62603 5.6875,-3.25 57.12793,-59.12561 36.21875,-114.5 36.21875,-114.5 L 493.9375,5.78125 452.03125,5.09375 z M 494,24.40625 l 5.28125,14.25 16.3125,0.34375 -13.03125,9.09375 4.625,14.4375 -13.34375,-8.625 -13.4375,8.59375 4.8125,-14.4375 -12.9375,-9.125 16.3125,-0.28125 5.40625,-14.25 z"
             transform="translate(0.14658147,308.2677)"
             id="path4070"
             inkscape:connector-curvature="0" />
          <path
             transform="translate(0.14658147,308.2677)"
             id="path4334"
             d="m 459,5.21875 c -0.48596,1.3174734 -20.18611,55.965416 36.25,114.375 0.79936,0.82731 1.52205,1.45256 2.1875,1.9375 0.66545,-0.48494 1.38814,-1.11019 2.1875,-1.9375 56.4361,-58.409584 36.73596,-113.0575266 36.25,-114.375 l -34.9375,0.5625 -3.5,-0.0625 -3.5,0.0625 L 459,5.21875 z m 35,19.1875 3.46875,9.34375 3.53125,-9.34375 5.28125,14.25 16.3125,0.34375 -13.03125,9.09375 4.625,14.4375 -8.8125,-5.71875 1.8125,5.71875 -9.875,-6.375 -9.90625,6.34375 1.90625,-5.6875 -8.90625,5.6875 4.8125,-14.4375 -12.9375,-9.125 16.3125,-0.28125 5.40625,-14.25 z"
             style="fill:url(#linearGradient4472);fill-opacity:1;stroke:none;filter:url(#filter4347)"
             inkscape:connector-curvature="0" />
          <path
             inkscape:connector-curvature="0"
             id="path4382"
             d="m 450.94039,311.94724 c 0,0 -20.90919,55.37439 36.21875,114.5 2.53531,2.62397 4.36658,3.36311 5.6875,3.25 1.32091,0.11311 3.15219,-0.62603 5.6875,-3.25 57.12793,-59.12561 36.21875,-114.5 36.21875,-114.5 l -41.90625,0.6875 -41.90625,-0.6875 z m 41.96875,19.3125 5.28125,14.25 16.3125,0.34375 -13.03125,9.09375 4.625,14.4375 -13.34375,-8.625 -13.4375,8.59375 4.8125,-14.4375 -12.9375,-9.125 16.3125,-0.28125 5.40625,-14.25 z"
             style="fill:url(#linearGradient4474);fill-opacity:1;stroke:none;filter:url(#filter4396)" />
          <path
             transform="matrix(0.70510702,0,0,1,176.48069,326.55707)"
             d="m 509.824,-13.216881 c 0,3.3194566 -26.59293,6.0104076 -59.39697,6.0104076 -32.80404,0 -59.39697,-2.690951 -59.39697,-6.0104076 0,-3.319456 26.59293,-6.010407 59.39697,-6.010407 32.80404,0 59.39697,2.690951 59.39697,6.010407 z"
             sodipodi:ry="6.0104074"
             sodipodi:rx="59.396969"
             sodipodi:cy="-13.216881"
             sodipodi:cx="450.42703"
             id="path4080"
             style="fill:#d19211;fill-opacity:1;fill-rule:nonzero;stroke:none"
             sodipodi:type="arc" />
          <path
             sodipodi:type="arc"
             style="fill:url(#linearGradient4476);fill-opacity:1;fill-rule:nonzero;stroke:none;filter:url(#filter4410)"
             id="path4400"
             sodipodi:cx="450.42703"
             sodipodi:cy="-13.216881"
             sodipodi:rx="59.396969"
             sodipodi:ry="6.0104074"
             d="m 509.824,-13.216881 c 0,3.3194566 -26.59293,6.0104076 -59.39697,6.0104076 -32.80404,0 -59.39697,-2.690951 -59.39697,-6.0104076 0,-3.319456 26.59293,-6.010407 59.39697,-6.010407 32.80404,0 59.39697,2.690951 59.39697,6.010407 z"
             transform="matrix(0.66790464,0,0,0.82352941,193.55459,324.55679)" />
        </g>
      </g>
      <g
         id="g4359">
        <path
           transform="matrix(0.96024264,0.03315986,-0.0553667,1.6328344,28.162803,204.3202)"
           d="m 510.88465,135.01038 c 0,1.9038 -7.71669,3.44714 -17.23572,3.44714 -9.51903,0 -17.23573,-1.54334 -17.23573,-3.44714 0,-1.90381 7.7167,-3.44715 17.23573,-3.44715 9.51903,0 17.23572,1.54334 17.23572,3.44715 z"
           sodipodi:ry="3.4471455"
           sodipodi:rx="17.235727"
           sodipodi:cy="135.01038"
           sodipodi:cx="493.64893"
           id="path4275"
           style="fill:#333333;fill-opacity:0.65048547;fill-rule:nonzero;stroke:none;filter:url(#filter4294)"
           sodipodi:type="arc" />
        <g
           id="g4352">
          <path
             transform="translate(0,308.2677)"
             id="path4250"
             d="m 480.1875,112.4375 c 0,0 3.67424,7.32906 -2.46875,16.875 -0.91869,1.4276 -1.20762,2.55467 -1.0625,3.4375 -0.006,0.063 -0.0312,0.12399 -0.0312,0.1875 0,3.19742 7.69972,5.78125 17.21875,5.78125 9.51903,0 17.25,-2.58383 17.25,-5.78125 0.13105,-0.87675 -0.18752,-1.99802 -1.09375,-3.40625 -6.14299,-9.54594 -2.46875,-16.875 -2.46875,-16.875 l -13,3 -1.0625,0 0,-0.15625 -13.28125,-3.0625 z"
             style="fill:#e9af39;fill-opacity:1;stroke:none"
             inkscape:connector-curvature="0" />
          <path
             inkscape:connector-curvature="0"
             style="fill:url(#linearGradient4478);fill-opacity:1;stroke:none;filter:url(#filter4308)"
             d="m 483.19874,420.7052 c 0,0 3.31625,7.32906 -2.22821,16.875 -0.82919,1.4276 -1.08996,2.55467 -0.95898,3.4375 -0.005,0.063 -0.0282,0.12399 -0.0282,0.1875 0,3.19742 6.94953,5.78125 15.5411,5.78125 8.59158,0 15.56931,-2.58383 15.56931,-5.78125 0.11828,-0.87675 -0.16925,-1.99802 -0.98718,-3.40625 -5.54447,-9.54594 -2.22822,-16.875 -2.22822,-16.875 l -11.73339,3 -0.95898,0 0,-0.15625 -11.98724,-3.0625 z"
             id="path4304" />
          <path
             transform="translate(0,308.2677)"
             id="path4237"
             d="m 480.34375,110.84375 c -0.53376,0.54032 -0.63021,1.24625 -0.0312,1.78125 5.01952,2.59015 9.6163,3.44496 13.5625,3.4375 0.0613,-1.2e-4 0.1265,5.3e-4 0.1875,0 3.9462,0.007 8.54298,-0.84735 13.5625,-3.4375 0.59896,-0.535 0.50251,-1.24093 -0.0312,-1.78125 -5.01132,2.58591 -9.59518,3.41693 -13.53125,3.40625 -0.0608,5.7e-4 -0.12634,-1.7e-4 -0.1875,0 -3.93607,0.0107 -8.51993,-0.82034 -13.53125,-3.40625 z"
             style="font-size:medium;font-style:normal;font-variant:normal;font-weight:normal;font-stretch:normal;text-indent:0;text-align:start;text-decoration:none;line-height:normal;letter-spacing:normal;word-spacing:normal;text-transform:none;direction:ltr;block-progression:tb;writing-mode:lr-tb;text-anchor:start;baseline-shift:baseline;color:#000000;fill:#d19211;fill-opacity:1;stroke:none;stroke-width:1px;marker:none;visibility:visible;display:inline;overflow:visible;enable-background:accumulate;font-family:Sans;-inkscape-font-specification:Sans"
             inkscape:connector-curvature="0" />
        </g>
      </g>
    </g>
  </g>
</svg>
