<?xml version="1.0" encoding="UTF-8" standalone="no"?>
<!-- Created with Inkscape (http://www.inkscape.org/) -->

<svg
   xmlns:dc="http://purl.org/dc/elements/1.1/"
   xmlns:cc="http://creativecommons.org/ns#"
   xmlns:rdf="http://www.w3.org/1999/02/22-rdf-syntax-ns#"
   xmlns:svg="http://www.w3.org/2000/svg"
   xmlns="http://www.w3.org/2000/svg"
   xmlns:sodipodi="http://sodipodi.sourceforge.net/DTD/sodipodi-0.dtd"
   xmlns:inkscape="http://www.inkscape.org/namespaces/inkscape"
   width="744.09448819"
   height="1052.3622047"
   id="svg3988"
   version="1.1"
   inkscape:version="0.48.3.1 r9886"
   sodipodi:docname="siluets.svg">
  <defs
     id="defs3990" />
  <sodipodi:namedview
     id="base"
     pagecolor="#ffffff"
     bordercolor="#666666"
     borderopacity="1.0"
     inkscape:pageopacity="0.0"
     inkscape:pageshadow="2"
     inkscape:zoom="0.58057143"
     inkscape:cx="121.68908"
     inkscape:cy="603.02878"
     inkscape:document-units="px"
     inkscape:current-layer="layer1"
     showgrid="false"
     showguides="true"
     inkscape:guide-bbox="true"
     inkscape:window-width="1366"
     inkscape:window-height="721"
     inkscape:window-x="-2"
     inkscape:window-y="24"
     inkscape:window-maximized="1" />
  <metadata
     id="metadata3993">
    <rdf:RDF>
      <cc:Work
         rdf:about="">
        <dc:format>image/svg+xml</dc:format>
        <dc:type
           rdf:resource="http://purl.org/dc/dcmitype/StillImage" />
        <dc:title></dc:title>
      </cc:Work>
    </rdf:RDF>
  </metadata>
  <g
     inkscape:label="Layer 1"
     inkscape:groupmode="layer"
     id="layer1">
    <rect
       style="fill:#ececec;fill-opacity:1;fill-rule:nonzero;stroke:none"
       id="rect4932"
       width="200"
       height="200"
       x="62.533623"
       y="208.68629"
       rx="0"
       ry="0" />
    <path
       style="fill:#000000;fill-opacity:1;stroke:none"
       d="m 153.7302,240.06134 c -0.84367,0.0103 -1.71236,0.0629 -2.59375,0.125 -28.20467,1.99092 -31.46875,32.78125 -31.46875,32.78125 0,0 3.60399,16.64887 1.28125,17.3125 -2.32274,0.66363 -7.41095,10.0902 10.3125,21.90625 3.38061,13.74304 9.98798,36.967 -11.44938,41.19786 -37.343998,7.66221 -42.653103,17.94419 -52.175561,52.58334 l -0.125,2.71875 100.124991,0 1.90625,0 3.40625,-0.0312 0,0.0312 84.5625,0 c 1.10085,-27.43412 -18.46898,-53.15528 -45.10537,-56.16787 -20.63401,-4.2867 -22.05328,-2.32999 -29.20708,-16.86333 -0.5312,-3.12248 -4.36127,-27.01759 2.78125,-29.8125 7.63185,-2.98637 4.82528,-18.86506 2.3125,-19.84375 -2.25833,-0.87957 -2.99829,1.50626 -2.625,-1.6875 2.38049,-20.36626 -5.78363,-44.56792 -31.9375,-44.25 z"
       id="path4519"
       inkscape:connector-curvature="0"
       sodipodi:nodetypes="cccscccccccccccssscc"
       inkscape:export-filename="/home/matus/Downloads/siluet.png"
       inkscape:export-xdpi="120.51399"
       inkscape:export-ydpi="120.51399" />
    <path
       style="fill:#000000;fill-opacity:1;fill-rule:nonzero;stroke:none"
       d="m 377.54917,31.164735 c -7.93897,0.16536 -25.20771,3.47633 -35.60356,25.970281 -4.89496,10.59147 -6.48004,21.56329 -6.51897,31.14322 -1.37756,4.5124 -3.21394,10.17022 -5.31546,15.466044 -1.56976,3.95584 2.35686,9.39575 2.35686,9.39575 l 1.20351,-4.75065 c 4.45214,9.38591 3.75424,15.22417 10.7312,17.78858 0.33187,0.10472 -0.91082,-4.2015 -1.70495,-6.80927 6.8062,4.72377 28.84183,14.90205 7.72246,18.63314 -24.62944,4.35117 -32.55215,12.9698 -37.86013,20.63898 -6.50917,10.04906 -11.54317,23.74367 -14.09099,32.83235 0.0397,0.11014 0.15998,0.21149 0.25073,0.31671 l 30.43853,0 3.20935,-5.7008 c 0.63827,-0.70164 1.93076,0.80413 2.10613,5.7008 l 98.98794,0 c 0.74187,-3.4408 0.39667,-7.27992 0.75934,-7.42761 1.19776,-0.11267 3.72415,4.32255 5.32979,7.20139 l 27.5086,0.22622 c -3.7931,-19.01754 -9.18053,-36.99672 -21.96389,-44.49786 -16.69132,-7.69846 -40.84257,-3.51807 -40.6683,-20.5862 9.69323,-4.09427 16.19711,-11.45437 16.19711,-11.45437 l -3.66064,-1.16127 0.15036,-9.44855 c 0.46037,-1.23554 0.75624,-2.4815 0.85247,-3.74773 4.19097,-55.144215 -31.47639,-68.716325 -36.60647,-69.570805 -0.63271,-0.1054 -1.97904,-0.19667 -3.8111,-0.15827 z"
       id="rect4532"
       inkscape:connector-curvature="0"
       sodipodi:nodetypes="cscsccccscccccccccccccccsccc"
       inkscape:export-filename="/home/matus/Downloads/siluet.png"
       inkscape:export-xdpi="120.51399"
       inkscape:export-ydpi="120.51399" />
    <path
       style="fill:#ffffff;fill-opacity:1;fill-rule:nonzero;stroke:none"
       d="m 339.67486,139.44612 c -0.48951,0.1418 -0.96594,0.2911 -1.4384,0.43728 0.55692,3.21208 5.98733,34.58371 5.90995,35.41895 -0.79645,8.59851 -8.39239,14.97779 -11.28832,17.12083 0.10952,0.7699 0.21523,1.64187 0.25015,2.69091 l 99.06203,0 c 0.35391,-1.7656 0.44625,-3.59555 0.50032,-5.07908 -3.42744,-2.77966 -9.40148,-8.60327 -10.10008,-16.1454 -0.0689,-0.74387 3.89613,-23.60457 5.28457,-31.58441 -0.50369,-0.10551 -1.00085,-0.19983 -1.50094,-0.30272 l -5.50345,31.44988 c -19.21763,18.58785 -37.47189,19.20392 -74.95318,1.37909 l -6.22265,-35.38533 z"
       id="path4584"
       inkscape:connector-curvature="0"
       inkscape:export-filename="/home/matus/Downloads/siluet.png"
       inkscape:export-xdpi="120.51399"
       inkscape:export-ydpi="120.51399" />
    <path
       inkscape:export-ydpi="120.51399"
       inkscape:export-xdpi="120.51399"
       inkscape:export-filename="/home/matus/Downloads/siluet.png"
       inkscape:connector-curvature="0"
       id="path4634"
       d="m 153.76528,23.315315 c -0.84367,0.0103 -1.73169,0.054 -2.61308,0.11613 -28.20467,1.99092 -31.4731,32.808681 -31.4731,32.808681 0,0 3.60024,16.64077 1.2775,17.3044 -2.32274,0.66363 -7.38727,10.07576 10.33618,21.89181 0,0 4.95293,22.550744 4.47128,29.382644 4.93558,4.25262 15.11962,12.45779 20.55624,12.60085 3.15229,0.0828 -7.01533,2.06522 -1.80013,17.71088 0.49773,1.49319 -7.66504,12.12803 -6.50366,25.89854 1.0629,12.60296 -14.2858,-44.56681 -16.08496,-51.27445 -50.677128,47.24896 -60.692308,20.70012 -60.042798,33.04095 0.66364,12.60917 -4.23899,26.42115 -4.23899,26.42115 l -0.11614,2.72922 102.026288,0 c 0.20354,-3.99503 0.54931,-13.67703 -0.58069,-19.10452 -1.13679,-5.46006 -6.32946,-15.50428 -6.32946,-15.50428 0,0 4.46744,-13.58713 -0.9291,-19.45294 0,0 18.50498,-11.97065 20.38203,-16.89792 0.393,-1.03164 0.80185,-1.59438 1.16137,-1.80012 -0.40512,-2.34447 -4.55127,-27.230564 2.72922,-30.079464 7.63185,-2.98637 4.83551,-18.88073 2.32273,-19.85942 -2.25833,-0.87957 -2.98637,1.50978 -2.61308,-1.68398 2.38049,-20.366261 -5.78378,-44.566081 -31.93765,-44.248161 z m 31.82151,99.297055 -12.60085,69.33375 84.54768,0 c -5.97022,-26.72701 5.41101,-33.78785 -6.79401,-36.46699 -39.87129,-8.75225 -59.1004,-26.27311 -65.15282,-32.86676 z"
       style="fill:#000000;fill-opacity:1;stroke:none" />
    <rect
       ry="0"
       rx="0"
       y="208.68629"
       x="282.76434"
       height="200"
       width="200"
       id="rect4934"
       style="fill:#ececec;fill-opacity:1;fill-rule:nonzero;stroke:none" />
    <path
       inkscape:export-ydpi="120.51399"
       inkscape:export-xdpi="120.51399"
       inkscape:export-filename="/home/matus/Downloads/siluet.png"
       sodipodi:nodetypes="cscsccccscccccccccccccccsccc"
       inkscape:connector-curvature="0"
       id="path4602"
       d="m 377.54917,248.06116 c -7.93897,0.16536 -25.20771,3.47633 -35.60356,25.97028 -4.89496,10.59147 -6.48004,21.56329 -6.51897,31.14322 -1.37756,4.5124 -3.21394,10.17022 -5.31546,15.46604 -1.56976,3.95584 2.35686,9.39575 2.35686,9.39575 l 1.20351,-4.75065 c 4.45214,9.38591 3.75424,15.22417 10.7312,17.78858 0.33187,0.10472 -0.91082,-4.2015 -1.70495,-6.80927 6.8062,4.72377 28.84183,14.90205 7.72246,18.63314 -24.62944,4.35117 -32.55215,12.9698 -37.86013,20.63898 -6.50917,10.04906 -11.54317,23.74367 -14.09099,32.83235 0.0397,0.11014 0.15998,0.21149 0.25073,0.31671 l 30.43853,0 3.20935,-5.7008 c 0.63827,-0.70164 1.93076,0.80413 2.10613,5.7008 l 98.98794,0 c 0.74187,-3.4408 0.39667,-7.27992 0.75934,-7.42761 1.19776,-0.11267 3.72415,4.32255 5.32979,7.20139 l 27.5086,0.22622 c -3.7931,-19.01754 -9.18053,-36.99672 -21.96389,-44.49786 -16.69132,-7.69846 -40.84257,-3.51807 -40.6683,-20.5862 9.69323,-4.09427 16.19711,-11.45437 16.19711,-11.45437 l -3.66064,-1.16127 0.15036,-9.44855 c 0.46037,-1.23554 0.75624,-2.4815 0.85247,-3.74773 4.19097,-55.14421 -31.47639,-68.71632 -36.60647,-69.5708 -0.63271,-0.1054 -1.97904,-0.19667 -3.8111,-0.15827 z"
       style="fill:#000000;fill-opacity:1;fill-rule:nonzero;stroke:none" />
    <rect
       ry="0"
       rx="0"
       y="429.30359"
       x="62.533623"
       height="200"
       width="200"
       id="rect4936"
       style="fill:#f9f9f9;fill-opacity:1;fill-rule:nonzero;stroke:none"
       inkscape:export-filename="/home/matus/NetBeansProjects/TrainingLog/images/photo-default-man.png"
       inkscape:export-xdpi="90"
       inkscape:export-ydpi="90" />
    <path
       inkscape:export-ydpi="120.51399"
       inkscape:export-xdpi="120.51399"
       inkscape:export-filename="/home/matus/Downloads/siluet.png"
       sodipodi:nodetypes="cccscccccccccccssscc"
       inkscape:connector-curvature="0"
       id="path4938"
       d="m 153.7302,460.67865 c -0.84367,0.0103 -1.71236,0.0629 -2.59375,0.125 -28.20467,1.99092 -31.46875,32.78125 -31.46875,32.78125 0,0 3.60399,16.64887 1.28125,17.3125 -2.32274,0.66363 -7.41095,10.0902 10.3125,21.90625 3.38061,13.74304 9.98798,36.967 -11.44938,41.19786 -37.343998,7.66221 -42.653103,17.94419 -52.175561,52.58334 l -0.125,2.71875 100.124991,0 1.90625,0 3.40625,-0.0312 0,0.0312 84.5625,0 c 1.10085,-27.43412 -18.46898,-53.15528 -45.10537,-56.16787 -20.63401,-4.2867 -22.05328,-2.32999 -29.20708,-16.86333 -0.5312,-3.12248 -4.36127,-27.01759 2.78125,-29.8125 7.63185,-2.98637 4.82528,-18.86506 2.3125,-19.84375 -2.25833,-0.87957 -2.99829,1.50626 -2.625,-1.6875 2.38049,-20.36626 -5.78363,-44.56792 -31.9375,-44.25 z"
       style="fill:#cccccc;fill-opacity:1;stroke:none" />
    <rect
       style="fill:#f9f9f9;fill-opacity:1;fill-rule:nonzero;stroke:none"
       id="rect4940"
       width="200"
       height="200"
       x="282.76434"
       y="429.30359"
       rx="0"
       ry="0"
       inkscape:export-filename="/home/matus/NetBeansProjects/TrainingLog/images/photo-default-woman.png"
       inkscape:export-xdpi="90"
       inkscape:export-ydpi="90" />
    <path
       style="fill:#cccccc;fill-opacity:1;fill-rule:nonzero;stroke:none"
       d="m 377.54917,468.67847 c -7.93897,0.16536 -25.20771,3.47633 -35.60356,25.97028 -4.89496,10.59147 -6.48004,21.56329 -6.51897,31.14322 -1.37756,4.5124 -3.21394,10.17022 -5.31546,15.46604 -1.56976,3.95584 2.35686,9.39575 2.35686,9.39575 l 1.20351,-4.75065 c 4.45214,9.38591 3.75424,15.22417 10.7312,17.78858 0.33187,0.10472 -0.91082,-4.2015 -1.70495,-6.80927 6.8062,4.72377 28.84183,14.90205 7.72246,18.63314 -24.62944,4.35117 -32.55215,12.9698 -37.86013,20.63898 -6.50917,10.04906 -11.54317,23.74367 -14.09099,32.83235 0.0397,0.11014 0.15998,0.21149 0.25073,0.31671 l 30.43853,0 3.20935,-5.7008 c 0.63827,-0.70164 1.93076,0.80413 2.10613,5.7008 l 98.98794,0 c 0.74187,-3.4408 0.39667,-7.27992 0.75934,-7.42761 1.19776,-0.11267 3.72415,4.32255 5.32979,7.20139 l 27.5086,0.22622 c -3.7931,-19.01754 -9.18053,-36.99672 -21.96389,-44.49786 -16.69132,-7.69846 -40.84257,-3.51807 -40.6683,-20.5862 9.69323,-4.09427 16.19711,-11.45437 16.19711,-11.45437 l -3.66064,-1.16127 0.15036,-9.44855 c 0.46037,-1.23554 0.75624,-2.4815 0.85247,-3.74773 4.19097,-55.14421 -31.47639,-68.71632 -36.60647,-69.5708 -0.63271,-0.1054 -1.97904,-0.19667 -3.8111,-0.15827 z"
       id="path4942"
       inkscape:connector-curvature="0"
       sodipodi:nodetypes="cscsccccscccccccccccccccsccc"
       inkscape:export-filename="/home/matus/Downloads/siluet.png"
       inkscape:export-xdpi="120.51399"
       inkscape:export-ydpi="120.51399" />
    <rect
       inkscape:export-ydpi="90"
       inkscape:export-xdpi="90"
       inkscape:export-filename="/home/matus/NetBeansProjects/TrainingLog/images/photo-default-man.png"
       style="fill:#ffffff;fill-opacity:1;fill-rule:nonzero;stroke:none"
       id="rect4944"
       width="200"
       height="200"
       x="62.533623"
       y="648.05359"
       rx="0"
       ry="0" />
    <path
       style="fill:#cccccc;fill-opacity:1;stroke:none"
       d="m 153.7302,679.42865 c -0.84367,0.0103 -1.71236,0.0629 -2.59375,0.125 -28.20467,1.99092 -31.46875,32.78125 -31.46875,32.78125 0,0 3.60399,16.64887 1.28125,17.3125 -2.32274,0.66363 -7.41095,10.0902 10.3125,21.90625 3.38061,13.74304 9.98798,36.967 -11.44938,41.19786 -37.343998,7.66221 -42.653103,17.94419 -52.175561,52.58334 l -0.125,2.71875 100.124991,0 1.90625,0 3.40625,-0.0312 0,0.0312 84.5625,0 c 1.10085,-27.43412 -18.46898,-53.15528 -45.10537,-56.16787 -20.63401,-4.2867 -22.05328,-2.32999 -29.20708,-16.86333 -0.5312,-3.12248 -4.36127,-27.01759 2.78125,-29.8125 7.63185,-2.98637 4.82528,-18.86506 2.3125,-19.84375 -2.25833,-0.87957 -2.99829,1.50626 -2.625,-1.6875 2.38049,-20.36626 -5.78363,-44.56792 -31.9375,-44.25 z"
       id="path4946"
       inkscape:connector-curvature="0"
       sodipodi:nodetypes="cccscccccccccccssscc"
       inkscape:export-filename="/home/matus/Downloads/siluet.png"
       inkscape:export-xdpi="120.51399"
       inkscape:export-ydpi="120.51399" />
    <rect
       inkscape:export-ydpi="90"
       inkscape:export-xdpi="90"
       inkscape:export-filename="/home/matus/NetBeansProjects/TrainingLog/images/photo-default-woman.png"
       ry="0"
       rx="0"
       y="648.05359"
       x="282.76434"
       height="200"
       width="200"
       id="rect4948"
       style="fill:#ffffff;fill-opacity:1;fill-rule:nonzero;stroke:none" />
    <path
       inkscape:export-ydpi="120.51399"
       inkscape:export-xdpi="120.51399"
       inkscape:export-filename="/home/matus/Downloads/siluet.png"
       sodipodi:nodetypes="cscsccccscccccccccccccccsccc"
       inkscape:connector-curvature="0"
       id="path4950"
       d="m 377.54917,687.42847 c -7.93897,0.16536 -25.20771,3.47633 -35.60356,25.97028 -4.89496,10.59147 -6.48004,21.56329 -6.51897,31.14322 -1.37756,4.5124 -3.21394,10.17022 -5.31546,15.46604 -1.56976,3.95584 2.35686,9.39575 2.35686,9.39575 l 1.20351,-4.75065 c 4.45214,9.38591 3.75424,15.22417 10.7312,17.78858 0.33187,0.10472 -0.91082,-4.2015 -1.70495,-6.80927 6.8062,4.72377 28.84183,14.90205 7.72246,18.63314 -24.62944,4.35117 -32.55215,12.9698 -37.86013,20.63898 -6.50917,10.04906 -11.54317,23.74367 -14.09099,32.83235 0.0397,0.11014 0.15998,0.21149 0.25073,0.31671 l 30.43853,0 3.20935,-5.7008 c 0.63827,-0.70164 1.93076,0.80413 2.10613,5.7008 l 98.98794,0 c 0.74187,-3.4408 0.39667,-7.27992 0.75934,-7.42761 1.19776,-0.11267 3.72415,4.32255 5.32979,7.20139 l 27.5086,0.22622 c -3.7931,-19.01754 -9.18053,-36.99672 -21.96389,-44.49786 -16.69132,-7.69846 -40.84257,-3.51807 -40.6683,-20.5862 9.69323,-4.09427 16.19711,-11.45437 16.19711,-11.45437 l -3.66064,-1.16127 0.15036,-9.44855 c 0.46037,-1.23554 0.75624,-2.4815 0.85247,-3.74773 4.19097,-55.14421 -31.47639,-68.71632 -36.60647,-69.5708 -0.63271,-0.1054 -1.97904,-0.19667 -3.8111,-0.15827 z"
       style="fill:#cccccc;fill-opacity:1;fill-rule:nonzero;stroke:none" />
  </g>
</svg>
