<?xml version="1.0" encoding="UTF-8" standalone="no"?>
<!-- Created with Inkscape (http://www.inkscape.org/) -->

<svg
   xmlns:dc="http://purl.org/dc/elements/1.1/"
   xmlns:cc="http://creativecommons.org/ns#"
   xmlns:rdf="http://www.w3.org/1999/02/22-rdf-syntax-ns#"
   xmlns:svg="http://www.w3.org/2000/svg"
   xmlns="http://www.w3.org/2000/svg"
   xmlns:sodipodi="http://sodipodi.sourceforge.net/DTD/sodipodi-0.dtd"
   xmlns:inkscape="http://www.inkscape.org/namespaces/inkscape"
   width="744.09448819"
   height="1052.3622047"
   id="svg2"
   version="1.1"
   inkscape:version="0.48.3.1 r9886"
   sodipodi:docname="siluets-body.svg">
  <defs
     id="defs4">
    <clipPath
       clipPathUnits="userSpaceOnUse"
       id="clipPath3841">
      <rect
         style="opacity:0.22222224;fill:#000000;fill-opacity:1;fill-rule:nonzero;stroke:none"
         id="rect3843"
         width="173"
         height="384"
         x="467"
         y="98.36219"
         rx="6.549304"
         ry="5.3997159" />
    </clipPath>
  </defs>
  <sodipodi:namedview
     id="base"
     pagecolor="#ffffff"
     bordercolor="#666666"
     borderopacity="1.0"
     inkscape:pageopacity="0.0"
     inkscape:pageshadow="2"
     inkscape:zoom="1.0455661"
     inkscape:cx="372.04724"
     inkscape:cy="886.96958"
     inkscape:document-units="px"
     inkscape:current-layer="layer1"
     showgrid="false"
     inkscape:window-width="1280"
     inkscape:window-height="1004"
     inkscape:window-x="-2"
     inkscape:window-y="-3"
     inkscape:window-maximized="1" />
  <metadata
     id="metadata7">
    <rdf:RDF>
      <cc:Work
         rdf:about="">
        <dc:format>image/svg+xml</dc:format>
        <dc:type
           rdf:resource="http://purl.org/dc/dcmitype/StillImage" />
        <dc:title></dc:title>
      </cc:Work>
    </rdf:RDF>
  </metadata>
  <g
     inkscape:label="Layer 1"
     inkscape:groupmode="layer"
     id="layer1">
    <path
       style="fill:#b3b3b3;fill-opacity:1;stroke:none;opacity:0.5"
       d="m 35.206653,138.50403 c -2.17188,0.0703 -3.53125,0.96875 -3.625,3.4375 -0.1875,4.9375 2.24721,11.34686 4.1875,13.875 1.80048,2.34597 6.4375,10.0625 6.4375,10.0625 l 7.625,14.875 c 4.649416,8.25104 8.501216,17.14827 12.0625,25.4375 1.4375,3.25 8,11.8125 8.9375,13.125 0.9375,1.3125 1.5625,6 6.8125,12.1875 5.25,6.1875 8.75,13.75 8.75,13.75 l 0.03125,-0.0312 c 0.32786,1.38643 1.09701,3.50917 2.6875,6.8125 4.64286,9.64286 -1.07142,10.81696 -5.625,15.90625 -4.55357,5.08929 -7.24107,12.30804 -10.1875,18.46875 -2.94643,6.16072 -4.40881,19.5114 -4,24.90625 0.31906,4.2105 2.84375,12.40625 2.84375,12.40625 l 7.34375,29.03125 4.8125,20.09375 c 0,0 0.25446,10.51786 -0.28125,11.5 -0.53572,0.98214 -2,12.875 -2,12.875 -0.808512,10.07754 0.546872,18.66639 3.09375,28.25 0,0 7.23214,23.88393 6.25,31.5625 -0.98215,7.67858 0.6875,9.1875 0.6875,9.1875 l -0.6875,8.0312 c 0,0 2.92411,6.70536 5.78125,8.3125 2.47619,1.39285 3.090357,0.51761 3.218747,0.25 2.18139,1.57966 2.86417,0.5327 3.03125,0.15625 1.22837,1.66708 2.88042,0.14717 2.9375,0.0937 0.033,0.0404 -0.005,-0.0129 0.0312,0.0312 1.43571,1.75477 3.21259,0.43945 3.59375,0.125 0.0863,0.0343 0.064,0.0259 0.15625,0.0625 5.625,2.23215 4.85491,-2.59153 4.53125,-2.9375 -3.23528,-4.64485 -8.27847,-11.27462 -9.8125,-18.21875 -5.717122,-17.32058 -0.69041,-36.41505 -2.8125,-53.65625 -0.39286,-2.625 -0.75,-16.78125 -0.75,-16.78125 0,0 1.41964,-6.61607 2.3125,-13.3125 0.89286,-6.69643 1.0625,-14.03125 1.0625,-14.03125 0,0 -2.8393,-45.60268 -2.75,-43.90625 0.0893,1.69643 5.52589,2.62906 5.52589,2.62906 l 4.91161,11.55844 c 0,0 8.92252,18.76758 9.1875,19.5625 0.29389,0.88166 11.0938,26.40635 11.0938,26.40635 0,0 6.13393,-6.41964 0.0625,0.1875 -6.07143,6.60715 -7.40625,16.25 -7.40625,16.25 0,0 0.13859,13.46444 -1.0625,26.96875 -1.00022,11.24589 -2.82062,10.67304 -4.75,13.96875 -2.05048,3.50258 -0.5491,5.39509 -0.45312,5.67188 0.64949,1.87305 4.92187,10.79687 4.92187,10.79687 l 1.4375,7.59375 c 0,0 -0.16518,3.7366 5.28125,9.09375 0.046,0.0452 0.08,0.0816 0.125,0.125 0.57084,1.39546 5.08295,4.12011 4.75,-0.0937 0.0269,-0.0665 0.006,-0.0315 0.0312,-0.0937 -0.0807,0.79351 2.89209,0.93645 1.84375,-1.6875 0.53891,0.59477 2.51155,0.42252 1.40625,-1.71875 0.51995,0.71679 2.56598,0.26356 0.78125,-2 0.29759,0.59765 2.31343,1.38723 1.375,-1.53125 -0.27978,-1.30593 -0.89806,-2.31159 -1.53125,-3.40625 -2.09459,-4.74274 -3.24395,-9.09303 -5.5625,-12.53125 -4.01786,-5.80357 -1,-12.59375 -1,-12.59375 l 2.25,-5.15625 7.5625,-17.34375 c 0,0 5.91071,-17.66071 8.5,-21.5 2.58928,-3.83928 4.12711,-8.83753 3.46875,-13.40625 -1.31037,-9.09336 -3.39683,-23.13541 -6.59467,-36.86919 -0.71428,-5.35714 -6.05081,-20.74531 -7.12224,-24.13817 -1.07143,-3.39286 -6.53309,-19.08639 -6.53309,-19.08639 l -0.1875,-17.9375 c 0,0 -1.95983,-10.26785 1.34375,-21.875 3.30357,-11.60714 1.4375,-25.71875 1.4375,-25.71875 0,0 5.4881,-3.30791 4.21875,-10.84375 -1.09638,-6.50899 -10.29784,-14.56928 -11.15625,-15.125 0.31726,-2.44355 1.28125,-4.78125 1.28125,-4.78125 l 10.9375,-14.25 c 0,0 5.9375,-7.875 13.5625,-17.375 7.625,-9.5 4.1875,-15.625 1.1875,-15.8125 -2.99985,-0.18755 -5.3125,-0.4375 -5.3125,-0.4375 l -16.18745,-0.8126 c 0,0 -26.625,1.5625 -27.125,1 -0.5,-0.5625 -1.99202,-10.86543 -11.124997,-12.4375 -7.625,-1.3125 -10.85462,3.45186 -11.3125,3.1875 -5.01278,-2.89413 -8.5625,5.875 -8.5625,5.875 0,0 -15.25,-6 -15.625,-6.125 -0.375,-0.125 -11.1875,-3.1875 -18,-4.6875 -3.40625,-0.75 -6.39062,-1.50781 -8.5625,-1.4375 z m 21.375,19.59375 c 3.763986,0.12753 17.5625,2.5625 17.5625,2.5625 -1.625,5.375 -2.25,21.125 -2.25,21.125 0,0 -13.94262,-22.03439 -16.125,-23.375 -0.2728,-0.16757 -0.16576,-0.25113 0.1875,-0.28125 0.154549,-0.0132 0.374068,-0.0397 0.625,-0.0312 z m 55.156247,6.40625 c 4.30027,0.53753 26.43566,2.28401 25.375,3.875 -5.15387,7.73083 -18.9375,20.34375 -18.9375,20.34375 0,0 -7.85171,-24.39552 -6.4375,-24.21875 z m 1.34375,16.40625 c 0.63746,1.37763 3.13436,7.49738 3.375,8.875 -0.67262,0.68341 -0.64703,0.92093 -2.53125,2.46875 -0.0405,-0.26358 -0.0744,-9.07757 -0.84375,-11.34375 z"
       id="path2996"
       inkscape:connector-curvature="0"
       sodipodi:nodetypes="ssscccssccsssscccsccsccsccccccccccscsccscscssscccccccccccccccsscsccscscccscccssscssssccssssscscccc"
       inkscape:export-filename="/home/matus/NetBeansProjects/TrainingLog/images/siluets-body.png"
       inkscape:export-xdpi="55.385281"
       inkscape:export-ydpi="55.385281" />
    <path
       style="fill:#b3b3b3;fill-opacity:1;stroke:none;opacity:0.5"
       d="m 412.20665,82.660282 c -0.11099,0.0087 -0.25213,0.02483 -0.375,0.0625 -9.45047,2.897136 -18.55571,14.465978 -18.5,13.09375 1.0106,-3.302963 -7.17472,3.057073 -13.5,12.999998 -2.60867,4.10065 -34.73042,16.39008 -44.21875,37.9375 0,0 -16.99106,-7.7898 -28.5,12.5 -1.31866,2.32475 -12.98528,-2.76992 -20,9.25 -0.35827,0.61391 -0.66474,1.20308 -0.9375,1.78125 -2.85635,-0.30369 -10.84944,-1.75627 -10.4375,-8.65625 0.5,-8.375 3.25,-5.625 5.125,-15.125 1.875,-9.5 1.25,-21.625 -3.25,-26.375 -2.8125,-2.96875 -6.80151,-5.51367 -11.5,-5.40625 -2.81909,0.0644 -5.89062,1.09375 -9.125,3.53125 -7.88134,5.93956 -9.09167,13.21283 -9.8125,18.71875 -0.91083,-1.24106 -1.87775,-0.79257 -1.9375,1 -0.125,3.75 0.21875,7.3125 3.46875,11.5625 0.93213,2.86093 2.01687,5.44 2.78125,6.96875 1.75,3.5 -1.05697,15.46282 -10.5625,19.6875 -2.8125,1.25 -14.48095,-5.53186 -23.125,5.125 -2.38196,2.93662 -12.71597,-10.55587 -24.9375,4.0625 -1.28882,1.54158 3.875,-13.75 -0.25,-38 -0.10394,-0.61106 -0.22472,-1.15914 -0.34375,-1.6875 2.58346,-0.86131 16.82656,-6.01133 14.09375,-14.4375 -3,-9.25 -9.25,-10.5 -15.75,-4.75 -6.5,5.75 -12.75,27 -12.75,27 l -2.75,13.90625 c -2.13518,8.44412 -3.58867,17.50182 -3.625,25.09375 -0.125,26.12501 49.31174,17.64277 49.93674,16.64277 -2.27708,30.95077 15.19985,42.55989 0.12576,76.32593 -14.48735,67.30456 0.96924,78.45326 4.6875,98.21875 3.35875,17.85445 -6.14806,13.38495 11.1875,56.53125 7.95495,19.799 5.34503,17.19726 -9.53125,30.40625 -14.97172,13.29373 -9.03125,15.375 -9.03125,15.375 0,0 4.23591,-0.52329 8.125,-1.9375 3.88909,-1.41421 9.557,-8.485 24.40625,-11.84375 5.68728,-1.28641 6,-8.125 6,-8.125 0,0 -5.28033,-14.3165 -4.75,-22.625 0.33857,-5.30428 1.40441,-26.33334 0.34375,-32.34375 -1.92444,-10.90511 -5.5207,-13.00678 -5.8894,-20.59191 -0.0103,-0.2116 0.0851,-1.40441 0.19462,-1.67323 4.24543,-10.42044 9.94478,-41.76611 9.94478,-41.76611 l 1.39921,-0.32322 c 0,0 -1.65669,18.87759 12.40349,45.86643 -0.16781,13.0896 -2.26758,24.11082 8.04105,58.55054 2.14152,11.73414 -3.4849,23.1076 -5.28125,34.34375 -0.31264,1.93117 0.3388,2.90008 0.1875,3.53125 -0.16907,0.63694 1.05958,2.75841 4.5625,1.375 0.0725,-0.036 0.0571,-0.0288 0.125,-0.0625 0.48293,0.0746 2.68029,0.34762 3.34375,-0.78125 0.0748,0.0143 2.24752,0.38908 2.75,-0.65625 0.3055,0.14713 1.34604,0.50656 2.78125,-0.6875 0.22624,0.10267 0.82873,0.71778 2.375,-0.75 1.02878,-0.97659 1.91193,-5.81033 1.9375,-7.53125 0.8053,-9.93291 -2.44309,-19.84081 -1.5,-28.40625 6.18718,-27.04683 7.52573,-36.18896 6.33487,-43.12532 -2.38021,-13.86396 -7.67168,-21.19317 -6.43934,-24.09191 7.55969,-17.78206 5.16238,-55.97762 4.27849,-61.28093 -0.88388,-5.3033 -10.60117,-57.98586 -7.22672,-62.86031 19.92711,-28.785 24.21314,-63.97999 24.34375,-65.6783 1.64969,-0.10046 26.8609,-9.60413 35.20895,-33.77573 30.86526,-21.38071 20.09982,-23.8161 38.25,-45.125 6.56952,-5.19766 21.02768,-23.432583 28,-30.156248 0.30835,-0.297349 -0.12934,-0.87326 -0.90625,-0.8125 z"
       id="path3845"
       inkscape:connector-curvature="0"
       sodipodi:nodetypes="cscscsscssssscscssssscssccsccssscsscssssccccccccccccccsssscccssc"
       inkscape:export-filename="/home/matus/NetBeansProjects/TrainingLog/images/siluets-body.png"
       inkscape:export-xdpi="55.385281"
       inkscape:export-ydpi="55.385281" />
  </g>
</svg>
