<?xml version="1.0" encoding="UTF-8" standalone="no"?>
<!-- Created with Inkscape (http://www.inkscape.org/) -->

<svg
   xmlns:dc="http://purl.org/dc/elements/1.1/"
   xmlns:cc="http://creativecommons.org/ns#"
   xmlns:rdf="http://www.w3.org/1999/02/22-rdf-syntax-ns#"
   xmlns:svg="http://www.w3.org/2000/svg"
   xmlns="http://www.w3.org/2000/svg"
   xmlns:sodipodi="http://sodipodi.sourceforge.net/DTD/sodipodi-0.dtd"
   xmlns:inkscape="http://www.inkscape.org/namespaces/inkscape"
   width="744.09448819"
   height="1052.3622047"
   id="svg2"
   version="1.1"
   inkscape:version="0.48.3.1 r9886"
   sodipodi:docname="smiley.svg">
  <defs
     id="defs4">
    <inkscape:path-effect
       effect="skeletal"
       id="path-effect3889"
       is_visible="true"
       pattern="M 0,0 0,10 10,5 z"
       copytype="single_stretched"
       prop_scale="1"
       scale_y_rel="false"
       spacing="0"
       normal_offset="0"
       tang_offset="0"
       prop_units="false"
       vertical_pattern="false"
       fuse_tolerance="0" />
    <filter
       inkscape:collect="always"
       id="filter4555">
      <feGaussianBlur
         inkscape:collect="always"
         stdDeviation="0.45104299"
         id="feGaussianBlur4557" />
    </filter>
  </defs>
  <sodipodi:namedview
     id="base"
     pagecolor="#ffffff"
     bordercolor="#666666"
     borderopacity="1.0"
     inkscape:pageopacity="0.0"
     inkscape:pageshadow="2"
     inkscape:zoom="2"
     inkscape:cx="168.63474"
     inkscape:cy="831.10089"
     inkscape:document-units="px"
     inkscape:current-layer="layer1"
     showgrid="false"
     showguides="true"
     inkscape:guide-bbox="true"
     inkscape:window-width="1280"
     inkscape:window-height="1004"
     inkscape:window-x="-2"
     inkscape:window-y="-3"
     inkscape:window-maximized="1" />
  <metadata
     id="metadata7">
    <rdf:RDF>
      <cc:Work
         rdf:about="">
        <dc:format>image/svg+xml</dc:format>
        <dc:type
           rdf:resource="http://purl.org/dc/dcmitype/StillImage" />
        <dc:title></dc:title>
      </cc:Work>
    </rdf:RDF>
  </metadata>
  <g
     inkscape:label="Layer 1"
     inkscape:groupmode="layer"
     id="layer1">
    <path
       id="path3762"
       d="m 278.4784,124.4841 c -10.31001,0 -18.66717,8.35716 -18.66717,18.66717 0,10.31001 8.35716,18.66717 18.66717,18.66717 10.31001,0 18.66717,-8.35716 18.66717,-18.66717 0,-10.31001 -8.35716,-18.66717 -18.66717,-18.66717 z m 0,2.67816 c 8.81909,0 15.98901,7.16992 15.98901,15.98901 0,8.81909 -7.16992,15.94903 -15.98901,15.94903 -8.81909,0 -15.94903,-7.12994 -15.94903,-15.94903 0,-8.81909 7.12994,-15.98901 15.94903,-15.98901 z"
       style="fill:#d91e1e;fill-opacity:1;fill-rule:nonzero;stroke:none"
       inkscape:connector-curvature="0" />
    <g
       id="g3804"
       transform="matrix(1.2791206,0,0,1.2791206,-46.575654,-55.239358)">
      <path
         style="fill:#d91e1e;fill-opacity:1;fill-rule:nonzero;stroke:none"
         d="m 133.71875,214.53125 c -8.06023,0 -14.59375,6.53352 -14.59375,14.59375 0,8.06023 6.53352,14.59375 14.59375,14.59375 7.68219,0 13.95762,-5.93355 14.53125,-13.46875 -2.02768,9.19495 -7.9833,11.63965 -14.55335,11.89553 C 126.77991,241.99085 121.25,236.01965 121.25,229.125 c 0,-6.89465 5.5741,-12.8125 12.46875,-12.8125 6.74673,0.0545 13.57205,3.77935 14.53125,11.65625 -0.58842,-7.52055 -6.85954,-13.4375 -14.53125,-13.4375 z"
         transform="translate(-0.875,0.125)"
         id="path2985"
         inkscape:connector-curvature="0"
         sodipodi:nodetypes="sssccsccs" />
      <path
         inkscape:connector-curvature="0"
         id="path3760"
         d="m 122.74421,231.9993 c 2.13536,4.43061 5.83924,7.37552 10.06257,7.37552 4.22333,0 7.9272,-2.94491 10.06256,-7.37552 -2.62608,3.33298 -6.16342,5.37655 -10.06256,5.37655 -3.89913,0 -7.43648,-2.04357 -10.06257,-5.37655 z"
         style="fill:#d91e1e;fill-opacity:1;fill-rule:nonzero;stroke:none" />
      <path
         inkscape:connector-curvature="0"
         id="path3776"
         d="m 129.49354,222.88817 c -0.73252,-0.2204 -1.57439,-0.27816 -2.45892,-0.12023 -1.84385,0.3292 -3.5798,1.50959 -4.94185,3.10918 0.13849,0.19225 0.28152,0.39974 0.45957,0.57891 1.33971,-0.68964 2.73232,-1.2999 4.30587,-1.58083 1.80639,-0.32251 3.06279,-0.0961 4.50471,0.21264 -0.11263,-0.63362 -0.44558,-1.23588 -0.97508,-1.7943 -0.28581,-0.16189 -0.57146,-0.30824 -0.8943,-0.40537 z"
         style="fill:#d91e1e;fill-opacity:1;fill-rule:nonzero;stroke:none" />
      <path
         style="fill:#d91e1e;fill-opacity:1;fill-rule:nonzero;stroke:none"
         d="m 136.20394,222.88817 c 0.73252,-0.2204 1.57439,-0.27816 2.45892,-0.12023 1.84385,0.3292 3.5798,1.50959 4.94185,3.10918 -0.13849,0.19225 -0.28152,0.39974 -0.45957,0.57891 -1.33971,-0.68964 -2.73232,-1.2999 -4.30587,-1.58083 -1.80639,-0.32251 -3.06279,-0.0961 -4.50471,0.21264 0.11263,-0.63362 0.44558,-1.23588 0.97508,-1.7943 0.28581,-0.16189 0.57146,-0.30824 0.8943,-0.40537 z"
         id="path3802"
         inkscape:connector-curvature="0" />
    </g>
    <path
       style="fill:#d91e1e;fill-opacity:1;fill-rule:nonzero;stroke:none"
       d="m 325.65941,125.32039 c -10.31,0 -18.66716,8.35716 -18.66716,18.66717 0,10.31001 8.35716,18.66717 18.66716,18.66717 10.31001,0 18.66717,-8.35716 18.66717,-18.66717 0,-10.31001 -8.35716,-18.66717 -18.66717,-18.66717 z m 0,2.67816 c 8.81909,0 15.98901,7.16992 15.98901,15.98901 0,8.81909 -7.16992,15.94903 -15.98901,15.94903 -8.81908,0 -15.94903,-7.12994 -15.94903,-15.94903 0,-8.81909 7.12995,-15.98901 15.94903,-15.98901 z"
       id="path3858"
       inkscape:connector-curvature="0" />
    <g
       id="g3896"
       transform="matrix(1.2791206,0,0,1.2791206,-138.79343,-53.379248)">
      <g
         transform="translate(37.625,0)"
         id="g3811">
        <path
           style="fill:#d91e1e;fill-opacity:1;fill-rule:nonzero;stroke:none"
           d="m 61.90625,230.4375 -2.625,0.84375 c -0.632477,1.43684 -1.114104,2.96287 -1.375,4.5625 -0.08643,0.52991 -0.147625,1.08128 -0.1875,1.625 -0.0158,0.2154 -0.02307,0.43891 -0.03125,0.65625 -0.0086,0.22772 0,0.45778 0,0.6875 0,1.28875 0.126347,2.53478 0.375,3.75 0.121863,0.58467 0.262337,1.1868 0.4375,1.75 0.003,0.01 -0.003,0.0216 0,0.0312 0.301043,0.96245 0.710558,1.86157 1.15625,2.75 0.0909,0.1812 0.153431,0.38473 0.25,0.5625 0.0066,0.0122 0.02462,0.019 0.03125,0.0312 0.281645,0.51562 0.578824,1.01534 0.90625,1.5 0.01276,0.019 0.01842,0.0435 0.03125,0.0625 0.324257,0.47616 0.665481,0.93179 1.03125,1.375 0.01458,0.0178 0.0166,0.0447 0.03125,0.0625 0.749777,0.90194 1.59533,1.72216 2.5,2.46875 0.01132,0.009 0.01991,0.0219 0.03125,0.0312 3.221813,2.64622 7.348877,4.21875 11.84375,4.21875 9.826446,0 17.86001,-7.58032 18.59375,-17.21875 -2.59364,11.76145 -10.221116,14.89145 -18.625,15.21875 -7.188468,-0.16076 -13.183694,-5.24817 -15.1875,-11.875 -0.462417,-1.52927 -0.71875,-3.12767 -0.71875,-4.78125 0,-0.2756 0.01749,-0.53954 0.03125,-0.8125 0.0058,-0.13449 -0.0084,-0.27217 0,-0.40625 0.01732,-0.22933 0.0357,-0.46044 0.0625,-0.6875 0.0068,-0.0724 0.02376,-0.14653 0.03125,-0.21875 0.223688,-2.1561 0.754992,-4.25306 1.40625,-6.1875 z"
           transform="matrix(0.78178711,0,0,0.78178711,73.162247,42.560418)"
           id="path3815"
           inkscape:connector-curvature="0" />
        <path
           inkscape:connector-curvature="0"
           id="path3819"
           d="m 129.49354,222.88817 c -0.73252,-0.2204 -1.57439,-0.27816 -2.45892,-0.12023 -1.84385,0.3292 -3.5798,1.50959 -4.94185,3.10918 0.13849,0.19225 0.28152,0.39974 0.45957,0.57891 1.33971,-0.68964 2.73232,-1.2999 4.30587,-1.58083 1.80639,-0.32251 3.06279,-0.0961 4.50471,0.21264 -0.11263,-0.63362 -0.44558,-1.23588 -0.97508,-1.7943 -0.28581,-0.16189 -0.57146,-0.30824 -0.8943,-0.40537 z"
           style="fill:#d91e1e;fill-opacity:1;fill-rule:nonzero;stroke:none" />
        <path
           style="fill:#d91e1e;fill-opacity:1;fill-rule:nonzero;stroke:none"
           d="m 136.20394,222.88817 c 0.73252,-0.2204 1.57439,-0.27816 2.45892,-0.12023 1.84385,0.3292 3.5798,1.50959 4.94185,3.10918 -0.13849,0.19225 -0.28152,0.39974 -0.45957,0.57891 -1.33971,-0.68964 -2.73232,-1.2999 -4.30587,-1.58083 -1.80639,-0.32251 -3.06279,-0.0961 -4.50471,0.21264 0.11263,-0.63362 0.44558,-1.23588 0.97508,-1.7943 0.28581,-0.16189 0.57146,-0.30824 0.8943,-0.40537 z"
           id="path3821"
           inkscape:connector-curvature="0" />
      </g>
      <path
         sodipodi:nodetypes="cccccccscscccccccccccccccscccccccccccccc"
         inkscape:connector-curvature="0"
         id="path3832"
         d="m 165.48928,213.49426 -0.375,0.59375 -2.0625,3.21875 c -0.23584,-0.36402 -0.41974,-0.66299 -0.84375,-1.3125 -0.51446,-0.8474 -1.02518,-1.63888 -1.74985,-2.15615 -1.61562,1.73777 -2.31821,4.51198 -2.875,6.5 -1.02528,2.76265 -2.73986,9.30825 -0.9375,11.03125 0,0 1.95307,-6.19557 2.5625,-8.46875 0.52834,-1.97073 1.2616,-4.0131 1.96875,-5.28125 0.22159,0.34643 0.47304,0.77891 0.75,1.21875 0.6142,0.97539 1.21875,1.96875 1.21875,1.96875 l 0.4375,0.65625 0.40625,-0.65625 2.03125,-3.3125 2.28125,2.8125 0.375,0.46875 0.375,-0.46875 2.375,-2.875 2.15625,2.625 0.40625,0.46875 0.375,-0.46875 2.0625,-2.59375 2.09375,2.59375 0.375,0.4375 0.375,-0.4375 c 0,0 0.70909,-0.78224 1.40625,-1.5625 0.30577,-0.34222 0.5966,-0.66844 0.84375,-0.9375 2.18113,1.54692 4.0609,3.03048 3.66513,11.76294 0.97184,-6.64658 0.88327,-10.41464 -3.29013,-15.48159 -1.15711,0.79352 -1.99431,1.842 -2.87485,2.84355 l -2.21905,-2.65625 -0.375,-0.46875 -0.375,0.46875 -2.1875,2.65625 -2.28125,-2.65625 -0.375,-0.4375 -0.375,0.4375 -2.46875,2.90625 -2.4375,-2.90625 z"
         style="font-size:medium;font-style:normal;font-variant:normal;font-weight:normal;font-stretch:normal;text-indent:0;text-align:start;text-decoration:none;line-height:normal;letter-spacing:normal;word-spacing:normal;text-transform:none;direction:ltr;block-progression:tb;writing-mode:lr-tb;text-anchor:start;baseline-shift:baseline;color:#000000;fill:#d91e1e;fill-opacity:1;stroke:none;stroke-width:1px;marker:none;visibility:visible;display:inline;overflow:visible;enable-background:accumulate;font-family:Sans;-inkscape-font-specification:Sans" />
      <path
         inkscape:connector-curvature="0"
         id="path3870"
         d="m 168.28125,230.25 c -4.28627,0.12239 -7.5,0.67824 -7.5,1.3125 -0.002,0.18909 0,0.38347 0,0.5625 0,2.72691 4.21132,4.9375 9.40625,4.9375 5.19493,0 9.40625,-2.21059 9.40625,-4.9375 -0.004,-0.19442 0,-0.42464 0,-0.5625 0,-0.72487 -4.21132,-1.3125 -9.40625,-1.3125 -0.64937,0 -1.29393,-0.0175 -1.90625,0 z m 0.21875,0.90625 c 0.54351,-0.0129 1.1111,0 1.6875,0 4.61115,0 8.34375,0.43652 8.34375,0.96875 0,0.10123 -0.004,0.26351 0,0.40625 0,2.00222 -3.7326,3.625 -8.34375,3.625 -4.61115,0 -8.34375,-1.62278 -8.34375,-3.625 0,-0.13145 -0.002,-0.26741 0,-0.40625 0,-0.4657 2.85165,-0.87895 6.65625,-0.96875 z"
         style="fill:#d91e1e;fill-opacity:1;fill-rule:nonzero;stroke:none" />
      <path
         inkscape:connector-curvature="0"
         id="path3887"
         d="m 161.62258,232.42468 0.007,1.3125 8.24591,-0.65665 z"
         style="fill:#d91e1e;fill-opacity:1;fill-rule:evenodd;stroke:none" />
      <path
         style="fill:#d91e1e;fill-opacity:1;fill-rule:evenodd;stroke:none"
         d="m 178.90674,232.36218 -0.007,1.3125 -8.24591,-0.65665 z"
         id="path3894"
         inkscape:connector-curvature="0" />
    </g>
    <g
       id="g4093"
       transform="translate(-0.70710679,8.485281)">
      <path
         sodipodi:nodetypes="sssccsccs"
         inkscape:connector-curvature="0"
         id="path2985-1"
         d="m 168.68494,211.24144 c -10.31001,0 -18.66717,8.35716 -18.66717,18.66716 0,10.31001 8.35716,18.66717 18.66717,18.66717 9.82645,0 17.85348,-7.58973 18.58722,-17.22816 -2.59365,11.76145 -10.2116,14.88852 -18.61549,15.21582 -8.84734,-0.19785 -15.92076,-7.83574 -15.92076,-16.65483 0,-8.81909 7.12994,-16.38873 15.94903,-16.38873 8.62988,0.0697 17.36029,4.83425 18.58722,14.90975 -0.75266,-9.61969 -8.77418,-17.18818 -18.58722,-17.18818 z"
         style="fill:#d91e1e;fill-opacity:1;fill-rule:nonzero;stroke:none" />
      <path
         inkscape:connector-curvature="0"
         id="path3776-8"
         d="m 161.09375,222.59375 c -0.3021,0.008 -0.57831,0.0218 -0.875,0.0625 -1.13864,0.15629 -2.16415,0.56819 -2.96875,1.125 -0.35461,0.24538 -0.62222,0.53414 -0.90625,0.84375 -0.42433,0.88816 -0.61255,1.74705 -0.5,2.5625 0.58508,-0.33812 1.16494,-0.62539 1.75,-0.90625 0.11489,1.21096 1.13396,2.15625 2.375,2.15625 1.31802,0 2.375,-1.05698 2.375,-2.375 0,-0.34462 -0.0873,-0.67289 -0.21875,-0.96875 1.70901,-0.12647 3.37507,0.0152 5,0.28125 0.14609,-0.28819 0.2197,-0.58649 0.3125,-0.875 -2.00176,-1.23376 -4.22902,-1.96118 -6.34375,-1.90625 z"
         style="fill:#d91e1e;fill-opacity:1;fill-rule:nonzero;stroke:none" />
      <path
         inkscape:connector-curvature="0"
         id="path3986"
         d="m 174.21875,220.1875 c -0.52849,0.007 -1.02625,0.0654 -1.5,0.1875 -0.41762,0.10754 -0.78263,0.2766 -1.15625,0.46875 -0.70544,0.68647 -1.1672,1.44597 -1.34375,2.25 0.61601,-0.10618 1.21616,-0.18792 1.8125,-0.25 -0.1618,0.44039 -0.18944,0.91777 -0.0625,1.40625 0.33151,1.27565 1.6306,2.05026 2.90625,1.71875 1.21159,-0.31486 1.96163,-1.50696 1.75,-2.71875 1.72572,0.46911 3.2922,1.21856 4.78125,2.0625 0.23678,-0.21982 0.4381,-0.48018 0.625,-0.71875 -1.65852,-2.1145 -3.81661,-3.73438 -6.15625,-4.25 -0.56119,-0.12366 -1.12776,-0.16344 -1.65625,-0.15625 z"
         style="fill:#d91e1e;fill-opacity:1;fill-rule:nonzero;stroke:none" />
      <path
         sodipodi:nodetypes="csccc"
         style="fill:#d91e1e;fill-opacity:1;fill-rule:nonzero;stroke:none"
         d="m 177.47647,238.75204 c -2.15709,-1.5091 -5.72009,-2.48009 -9.65629,-2.4208 -3.9362,0.0593 -7.27733,1.13429 -9.10062,2.70335 5.0658,-0.95017 5.74562,-1.03055 9.16236,-1.08529 3.63403,0.081 4.03314,-0.10082 9.59455,0.80274 z"
         id="path3760-9"
         inkscape:connector-curvature="0" />
    </g>
    <g
       id="g4099"
       transform="translate(-0.70710679,8.485281)">
      <path
         sodipodi:nodetypes="sssccsccs"
         inkscape:connector-curvature="0"
         id="path2985-1-6"
         d="m 213.28998,211.19502 c -10.31001,0 -18.66717,8.35716 -18.66717,18.66716 0,10.31001 8.35716,18.66717 18.66717,18.66717 9.82645,0 17.85348,-7.58973 18.58722,-17.22816 -2.59365,11.76145 -10.2116,14.88852 -18.61549,15.21582 -8.84734,-0.19785 -15.92076,-7.83574 -15.92076,-16.65483 0,-8.81909 7.12994,-16.38873 15.94903,-16.38873 8.62988,0.0697 17.36029,4.83425 18.58722,14.90975 -0.75266,-9.61969 -8.77418,-17.18818 -18.58722,-17.18818 z"
         style="fill:#d91e1e;fill-opacity:1;fill-rule:nonzero;stroke:none" />
      <path
         style="fill:#d91e1e;fill-opacity:1;fill-rule:nonzero;stroke:none"
         d="m 224.58387,239.87417 c -2.2062,-4.57759 -6.03294,-7.62018 -10.39637,-7.62018 -4.36343,0 -8.19015,3.04259 -10.39635,7.62018 2.71319,-3.44355 6.36787,-5.5549 10.39635,-5.5549 4.02848,0 7.68317,2.11135 10.39637,5.5549 z"
         id="path3760-6"
         inkscape:connector-curvature="0" />
      <g
         transform="translate(-1.22432,0)"
         id="g4086">
        <path
           inkscape:connector-curvature="0"
           id="path3776-8-5"
           d="m 203.39594,222.71145 c 0.86961,-0.41741 1.9523,-0.71873 3.18293,-0.83589 2.56531,-0.24422 5.35115,0.31992 7.8237,1.37692 -0.10029,0.21627 -0.20006,0.4478 -0.35796,0.66384 -2.05571,-0.23348 -4.1472,-0.37892 -6.33645,-0.17047 -2.5132,0.23927 -4.0693,0.81687 -5.83434,1.52437 -0.12164,-0.6113 0.0599,-1.25906 0.5185,-1.92485 0.30697,-0.2321 0.62036,-0.44998 1.00362,-0.63392 z"
           style="fill:#d91e1e;fill-opacity:1;fill-rule:nonzero;stroke:none" />
        <path
           style="fill:#d91e1e;fill-opacity:1;fill-rule:nonzero;stroke:none"
           d="m 227.42771,222.71145 c -0.86961,-0.41741 -1.9523,-0.71873 -3.18293,-0.83589 -2.56531,-0.24422 -5.35115,0.31992 -7.8237,1.37692 0.10029,0.21627 0.20006,0.4478 0.35796,0.66384 2.05571,-0.23348 4.1472,-0.37892 6.33645,-0.17047 2.5132,0.23927 4.0693,0.81687 5.83434,1.52437 0.12164,-0.6113 -0.0599,-1.25906 -0.5185,-1.92485 -0.30697,-0.2321 -0.62036,-0.44998 -1.00362,-0.63392 z"
           id="path4084"
           inkscape:connector-curvature="0" />
      </g>
    </g>
    <g
       transform="matrix(1.2791206,0,0,1.2791206,-91.868987,16.82272)"
       id="g4403"
       style="fill:#000000" />
  </g>
</svg>
