<?xml version="1.0" encoding="UTF-8" standalone="no"?>
<!-- Created with Inkscape (http://www.inkscape.org/) -->

<svg
   xmlns:dc="http://purl.org/dc/elements/1.1/"
   xmlns:cc="http://creativecommons.org/ns#"
   xmlns:rdf="http://www.w3.org/1999/02/22-rdf-syntax-ns#"
   xmlns:svg="http://www.w3.org/2000/svg"
   xmlns="http://www.w3.org/2000/svg"
   xmlns:sodipodi="http://sodipodi.sourceforge.net/DTD/sodipodi-0.dtd"
   xmlns:inkscape="http://www.inkscape.org/namespaces/inkscape"
   width="744.09448819"
   height="1052.3622047"
   id="svg2"
   version="1.1"
   inkscape:version="0.48.3.1 r9886"
   sodipodi:docname="sport-icons.svg">
  <defs
     id="defs4">
    <inkscape:path-effect
       effect="skeletal"
       id="path-effect3038"
       is_visible="true"
       pattern="M 0,0 0,10 10,5 z"
       copytype="single_stretched"
       prop_scale="1"
       scale_y_rel="false"
       spacing="0"
       normal_offset="0"
       tang_offset="0"
       prop_units="false"
       vertical_pattern="false"
       fuse_tolerance="0" />
  </defs>
  <sodipodi:namedview
     id="base"
     pagecolor="#ffffff"
     bordercolor="#666666"
     borderopacity="1.0"
     inkscape:pageopacity="0.0"
     inkscape:pageshadow="2"
     inkscape:zoom="0.49497475"
     inkscape:cx="402.4692"
     inkscape:cy="1430.0312"
     inkscape:document-units="px"
     inkscape:current-layer="layer1"
     showgrid="false"
     inkscape:window-width="1366"
     inkscape:window-height="721"
     inkscape:window-x="-2"
     inkscape:window-y="24"
     inkscape:window-maximized="1" />
  <metadata
     id="metadata7">
    <rdf:RDF>
      <cc:Work
         rdf:about="">
        <dc:format>image/svg+xml</dc:format>
        <dc:type
           rdf:resource="http://purl.org/dc/dcmitype/StillImage" />
        <dc:title></dc:title>
      </cc:Work>
    </rdf:RDF>
  </metadata>
  <g
     inkscape:label="Layer 1"
     inkscape:groupmode="layer"
     id="layer1">
    <rect
       style="fill:#dddddd;fill-opacity:1;fill-rule:nonzero;stroke:none"
       id="rect3813"
       width="1505.1273"
       height="533.36053"
       x="-323.24881"
       y="-424.48083" />
    <g
       id="g3782"
       transform="matrix(-1.0067156,0,0,0.99575259,562.52743,-874.37506)"
       style="fill:#d91e1f;fill-opacity:0.94117647"
       inkscape:export-filename="/home/matus/NetBeansProjects/TrainingLog/images/css/activity-icons-small.png"
       inkscape:export-xdpi="19.798889"
       inkscape:export-ydpi="19.798889">
      <path
         sodipodi:nodetypes="ssss"
         inkscape:connector-curvature="0"
         id="path2996"
         d="m 479.0268,693.5248 c 4.84407,-0.5179 12.2232,0.98024 12.40178,9.19452 0.17857,8.21429 -8.50938,5.15425 -11.43096,3.65882 -4.32981,-2.21625 -8.60466,-12.03716 -0.97082,-12.85334 z"
         style="fill:#d91e1f;stroke:none;fill-opacity:0.94117647" />
      <path
         sodipodi:nodetypes="cssssscsssssc"
         inkscape:connector-curvature="0"
         id="path3766"
         d="m 475.51707,729.88971 c 0,0 18.11781,-1.5636 17.74423,-20.01421 -0.37355,-18.4506 4.93369,-18.87714 15.87643,-18.76332 11.42793,0.11886 34.48657,8.23569 40.90513,14.22886 4.85631,4.53446 10.39678,17.41208 -9.15229,19.70148 -20.23144,2.36934 -26.61201,0.70714 -27.83044,2.34542 -2.1707,2.91869 32.20788,30.62199 32.20788,30.62199 0,0 -40.42626,-17.95674 -43.22797,-25.46208 -3.94614,-10.57102 4.10917,-15.01065 7.65803,-15.79246 3.54885,-0.7818 26.33617,-2.0327 27.27008,-3.28359 0.93391,-1.25088 -17.20745,-12.22843 -32.68675,-11.10162 -4.29597,0.31271 2.80173,9.06894 -2.98848,16.41791 -8.89084,11.28427 -25.77585,11.10162 -25.77585,11.10162 z"
         style="fill:#d91e1f;fill-opacity:0.94117647;stroke:none" />
      <path
         sodipodi:nodetypes="cssc"
         inkscape:connector-curvature="0"
         id="path3768"
         d="m 483.40184,733.38131 c 0,0 60.04662,24.81542 66.39873,29.5049 6.35212,4.68949 0.63219,4.99086 -6.05253,2.08614 -4.05872,-1.76365 -60.3462,-31.59104 -60.3462,-31.59104 z"
         style="fill:#d91e1f;stroke:none;fill-opacity:0.94117647" />
      <path
         sodipodi:nodetypes="csssc"
         inkscape:connector-curvature="0"
         id="path3770"
         d="m 484.87322,720.90587 c 0,0 -19.06663,-2.0203 -17.5514,9.09138 1.51523,11.11168 21.55252,34.02357 23.23351,34.72399 1.51523,0.63135 -17.41115,-29.25266 -17.80394,-32.19861 -0.25253,-1.89404 -4.67196,-5.68211 12.12183,-11.61676 z"
         style="fill:#d91e1f;stroke:none;fill-opacity:0.94117647" />
      <path
         id="path3772"
         d="m 474.03125,737.40625 c -6.04414,0.0504 -11.40279,2.14076 -14.9375,6.34375 -8.07934,9.60683 -3.60968,26.67927 10,38.125 13.60968,11.44573 31.20191,12.91933 39.28125,3.3125 6.0595,-7.20512 5.06127,-18.60857 -1.5625,-28.6875 5.42258,8.43555 6.18196,17.92446 1.125,23.9375 -6.81909,8.10833 -21.6382,6.84788 -33.125,-2.8125 -11.4868,-9.66038 -15.28784,-24.04792 -8.46875,-32.15625 6.81909,-8.10833 21.66945,-6.84788 33.15625,2.8125 1.43585,1.20755 2.74803,2.47826 3.9375,3.8125 -1.51821,-1.7538 -3.1897,-3.45623 -5.0625,-5.03125 -7.65545,-6.43822 -16.57271,-9.72103 -24.34375,-9.65625 z"
         style="fill:#d91e1f;fill-opacity:0.94117647;fill-rule:nonzero;stroke:none"
         inkscape:connector-curvature="0" />
      <path
         inkscape:connector-curvature="0"
         style="fill:#d91e1f;fill-opacity:0.94117647;fill-rule:nonzero;stroke:none"
         d="m 535.90309,737.40625 c -6.04414,0.0504 -11.40279,2.14076 -14.9375,6.34375 -8.07934,9.60683 -3.60968,26.67927 10,38.125 13.60968,11.44573 31.20191,12.91933 39.28125,3.3125 6.0595,-7.20512 5.06127,-18.60857 -1.5625,-28.6875 5.42258,8.43555 6.18196,17.92446 1.125,23.9375 -6.81909,8.10833 -21.6382,6.84788 -33.125,-2.8125 -11.4868,-9.66038 -15.28784,-24.04792 -8.46875,-32.15625 6.81909,-8.10833 21.66945,-6.84788 33.15625,2.8125 1.43585,1.20755 2.74803,2.47826 3.9375,3.8125 -1.51821,-1.7538 -3.1897,-3.45623 -5.0625,-5.03125 -7.65545,-6.43822 -16.57271,-9.72103 -24.34375,-9.65625 z"
         id="path3780" />
    </g>
    <g
       id="g3855"
       transform="matrix(-0.95497738,0.29050904,0.25108173,1.1049372,682.77995,-1048.5861)"
       style="fill:#ffffff;fill-opacity:1"
       inkscape:export-filename="/home/matus/NetBeansProjects/TrainingLog/images/css/activity-icons-small.png"
       inkscape:export-xdpi="19.798889"
       inkscape:export-ydpi="19.798889">
      <path
         style="fill:#ffffff;stroke:none;fill-opacity:1"
         d="m 513.88698,655.9266 c 3.78239,0.68699 8.81969,3.21771 6.35083,8.58615 -2.46888,5.36845 -7.98901,1.54769 -9.69756,-0.0398 -2.53209,-2.35272 -2.61399,-9.62893 3.34673,-8.54631 z"
         id="path2996-3"
         inkscape:connector-curvature="0"
         sodipodi:nodetypes="ssss" />
      <path
         sodipodi:nodetypes="cssscscccccscsssc"
         inkscape:connector-curvature="0"
         id="path3829"
         d="m 524.2976,661.1894 c 0,0 -7.5,-3.39285 -0.53571,-9.28571 6.96429,-5.89286 14.72105,-8.16364 17.22105,-9.0565 2.5,-0.89285 9.48995,-3.08151 18.77567,4.06135 9.28571,7.14285 8.09237,6.87681 8.09237,6.87681 0,0 -13.97706,-8.23826 -24.12185,-5.26321 -8.51852,2.49813 -4.85741,2.89682 6.33474,8.03781 14.6909,6.53963 8.41317,15.76192 13.05292,24.98618 3.56825,7.07111 39.36323,5.65914 39.36323,5.65914 l -1.23119,1.18041 c -12.75378,1.52382 -46.58978,6.79136 -49.98173,-8.69664 -1.3725,-1.73055 -12.96564,4.25543 -14.68687,7.44162 -1.78765,3.30916 9.42034,7.44047 22.54534,11.0119 0,0 -19.84259,-0.48853 -26.9181,-4.16397 -4.81153,-2.4994 -7.36077,-5.38961 -2.45064,-11.27765 4.85684,-5.82414 18.64792,-15.44011 11.50506,-16.86868 -7.14286,-1.42857 -16.96429,-4.64286 -16.96429,-4.64286 z"
         style="fill:#ffffff;stroke:none;fill-opacity:1" />
      <path
         inkscape:connector-curvature="0"
         id="path3831"
         d="m 552.62573,667.36917 44.4112,-37.19186 -47.62319,34.292 z"
         style="fill:#ffffff;stroke:none;fill-opacity:1" />
      <path
         inkscape:connector-curvature="0"
         id="path3833"
         d="m 558.78037,710.19478 c 0,0 -5.57055,13.00679 4.22911,7.85941 9.79966,-5.14736 66.32415,-49.59497 66.32415,-49.59497 l -65.42252,45.31017 c 0,0 -6.62695,5.85221 -5.13074,-3.57461 z"
         style="fill:#ffffff;stroke:none;fill-opacity:1" />
      <path
         style="fill:#ffffff;stroke:none;fill-opacity:1"
         d="m 518.71667,705.31536 c 0,0 -8.90153,10.99864 1.9294,8.71397 10.83093,-2.28467 77.32192,-29.66267 77.32192,-29.66267 l -75.2877,25.78524 c 0,0 -7.97,3.82674 -3.96362,-4.83654 z"
         id="path3835"
         inkscape:connector-curvature="0" />
      <path
         sodipodi:nodetypes="ssss"
         inkscape:connector-curvature="0"
         id="path4091"
         d="m 513.88698,655.9266 c 3.78239,0.68699 8.81969,3.21771 6.35083,8.58615 -2.46888,5.36845 -7.98901,1.54769 -9.69756,-0.0398 -2.53209,-2.35272 -2.61399,-9.62893 3.34673,-8.54631 z"
         style="fill:#ffffff;stroke:none;fill-opacity:1" />
    </g>
    <g
       id="g3915"
       transform="matrix(1.13158,0,0,1.1581897,-130.1793,-500.18022)"
       inkscape:export-filename="/home/matus/NetBeansProjects/TrainingLog/images/css/activity-icons-small.png"
       inkscape:export-xdpi="19.798889"
       inkscape:export-ydpi="19.798889"
       style="fill:#a500a6;fill-opacity:1">
      <path
         sodipodi:nodetypes="ssss"
         inkscape:connector-curvature="0"
         id="path2996-3-4"
         d="m 646.06939,278.58472 c -3.4396,2.08566 -7.61469,6.86752 -3.90907,12.72133 3.70564,5.85382 8.01792,-0.68566 9.25096,-3.21196 1.82736,-3.74407 0.0787,-12.79611 -5.34188,-9.50931 z"
         style="fill:#a500a6;stroke:none;fill-opacity:1" />
      <path
         id="path3829-1"
         d="m 615,271.09375 c -3.39144,0.0751 -9.2522,1.59084 -15,11.25 -7.0742,11.88821 -6,11.1875 -6,11.1875 0,0 11.28372,-14.78803 21.71875,-14.40625 8.76223,0.32058 5.3662,2.00441 -4.03125,12.03125 -12.38749,12.90272 -3.91643,24.60769 -6.03125,37.5625 -2.73732,12.02908 -27.46875,22.375 -27.46875,22.375 0,0 41.21202,-9.55764 40.5625,-29.875 0.8762,-2.59415 12.12536,1.74485 15.5,3.90625 4.51501,2.89178 -0.68407,12.73737 -8.75,25.15625 8.90403,-7.98992 25.03708,-23.10504 18.59375,-31.75 -6.1005,-8.47525 -29.01896,-8.28359 -23.34375,-13.65625 4.62314,-1.97439 9.01272,-4.89183 12.40625,-8.1875 3.19043,2.82735 7.86653,5.83548 12.875,5.125 10.63936,-1.50924 30.03125,-15.125 30.03125,-15.125 -43.17066,18.79533 -35.27073,2.2532 -36.21875,-2.0625 0.10464,-2.92146 -1.15424,-5.65646 -4.21875,-7.8125 -8.13033,-5.03823 -16.10712,-5.33281 -18.71875,-5.625 -0.48968,-0.0548 -1.12361,-0.11109 -1.90625,-0.0937 z"
         style="fill:#a500a6;stroke:none;fill-opacity:1"
         inkscape:connector-curvature="0" />
      <path
         inkscape:connector-curvature="0"
         id="path3901"
         d="m 621.12054,345.80804 c -0.76097,-0.0103 -1.60439,0.27169 -2.375,0.8125 -1.54122,1.08162 -2.15617,2.85565 -1.375,3.96875 0.78117,1.1131 2.64628,1.14412 4.1875,0.0625 1.54122,-1.08162 2.15617,-2.85565 1.375,-3.96875 -0.39058,-0.55655 -1.05153,-0.86468 -1.8125,-0.875 z m 7.71875,0 c -0.76097,-0.0103 -1.63564,0.27169 -2.40625,0.8125 -1.54122,1.08162 -2.15617,2.85565 -1.375,3.96875 0.78117,1.1131 2.67753,1.14412 4.21875,0.0625 1.54122,-1.08162 2.15617,-2.85565 1.375,-3.96875 -0.39058,-0.55655 -1.05153,-0.86468 -1.8125,-0.875 z m 7.6875,0 c -0.76097,-0.0103 -1.60439,0.27169 -2.375,0.8125 -1.54122,1.08162 -2.15617,2.85565 -1.375,3.96875 0.78117,1.1131 2.64628,1.14412 4.1875,0.0625 1.54122,-1.08162 2.15617,-2.85565 1.375,-3.96875 -0.39058,-0.55655 -1.05153,-0.86468 -1.8125,-0.875 z m 7.71875,0 c -0.76097,-0.0103 -1.63564,0.27169 -2.40625,0.8125 -1.54122,1.08162 -2.15617,2.85565 -1.375,3.96875 0.78117,1.1131 2.67753,1.14412 4.21875,0.0625 1.54122,-1.08162 2.15617,-2.85565 1.375,-3.96875 -0.39058,-0.55655 -1.05153,-0.86468 -1.8125,-0.875 z"
         style="fill:#a500a6;fill-opacity:1;fill-rule:nonzero;stroke:none;stroke-width:1;stroke-miterlimit:4;stroke-opacity:1;stroke-dasharray:none" />
      <path
         style="fill:#a500a6;fill-opacity:1;fill-rule:nonzero;stroke:none;stroke-width:1;stroke-miterlimit:4;stroke-opacity:1;stroke-dasharray:none"
         d="m 575.502,345.77325 c -0.73128,-0.21073 -1.61922,-0.16128 -2.50522,0.15703 -1.772,0.63662 -2.83325,2.18552 -2.37347,3.46529 0.45978,1.27977 2.25061,1.80182 4.0226,1.16521 1.772,-0.63662 2.83326,-2.18552 2.37348,-3.46529 -0.22989,-0.63989 -0.78611,-1.1115 -1.51739,-1.32224 z m 7.4452,2.03668 c -0.73128,-0.21073 -1.64936,-0.16952 -2.53536,0.14879 -1.772,0.63662 -2.83325,2.18551 -2.37347,3.46529 0.45978,1.27977 2.28075,1.81007 4.05275,1.17345 1.77199,-0.63662 2.83325,-2.18552 2.37347,-3.46529 -0.22989,-0.63989 -0.78611,-1.1115 -1.51739,-1.32224 z m 7.41506,2.02844 c -0.73128,-0.21073 -1.61922,-0.16128 -2.50522,0.15703 -1.772,0.63662 -2.83325,2.18552 -2.37347,3.46529 0.45978,1.27977 2.25061,1.80182 4.0226,1.16521 1.772,-0.63662 2.83326,-2.18552 2.37348,-3.46529 -0.22989,-0.63989 -0.78611,-1.1115 -1.51739,-1.32224 z m 7.4452,2.03668 c -0.73128,-0.21073 -1.64936,-0.16952 -2.53536,0.14879 -1.772,0.63662 -2.83325,2.18551 -2.37347,3.46529 0.45978,1.27977 2.28075,1.81007 4.05275,1.17345 1.77199,-0.63662 2.83325,-2.18552 2.37347,-3.46529 -0.22989,-0.63989 -0.78611,-1.1115 -1.51739,-1.32224 z"
         id="path3910"
         inkscape:connector-curvature="0" />
      <path
         style="fill:#a500a6;stroke:none;fill-opacity:1"
         d="m 646.06939,278.58472 c -3.4396,2.08566 -7.61469,6.86752 -3.90907,12.72133 3.70564,5.85382 8.01792,-0.68566 9.25096,-3.21196 1.82736,-3.74407 0.0787,-12.79611 -5.34188,-9.50931 z"
         id="path3960"
         inkscape:connector-curvature="0"
         sodipodi:nodetypes="ssss" />
    </g>
    <g
       id="g3983"
       transform="matrix(-0.99022911,0,0,0.99022911,864.71025,-724.58431)"
       inkscape:export-filename="/home/matus/NetBeansProjects/TrainingLog/images/css/activity-icons-small.png"
       inkscape:export-xdpi="19.798889"
       inkscape:export-ydpi="19.798889"
       style="fill:#3d7d00;fill-opacity:1">
      <path
         sodipodi:nodetypes="scssscscsscscscs"
         inkscape:connector-curvature="0"
         id="path3955"
         d="m 172.86777,609.21823 c -10.25721,-12.78525 -13.98961,-24.28209 -22.90252,-23.54687 0,0 -5.8189,0.35796 0.71429,18.42477 4.2529,11.76094 -10.03763,-13.62283 -6.24955,-20.94643 3.78807,-7.32361 12.51518,-5.15723 15.2931,-2.75811 2.77792,2.39911 0.77743,-10.12288 0.77743,-10.12288 0,0 -12.87945,-0.75761 -16.28871,-4.41941 -3.40927,-3.66181 -3.91434,-6.9448 -3.91434,-6.9448 0,0 2.65165,9.59645 22.8547,6.06091 20.20305,-3.53553 22.51287,2.74619 23.40048,4.32378 2.52643,4.4904 -2.75889,13.12039 -17.7849,13.4992 0,0 18.5943,-5.35144 12.2877,-11.53644 -4.70789,-4.61713 -6.97915,0.35233 -7.86938,2.14811 -3.3894,7.47224 -7.02486,9.78699 -3.43392,19.1987 5.06185,13.26691 20.16419,32.95386 20.16419,32.95386 0.002,-7.7e-4 -16.27166,-15.366 -17.04857,-16.33439 z"
         style="fill:#3d7d00;stroke:none;fill-opacity:1" />
      <path
         inkscape:connector-curvature="0"
         id="rect3921"
         d="m 141.18492,597.70536 -32.39921,46.96875 27.52891,0 21.82519,-31.625 -16.95489,-15.34375 z m 24.09105,7.53125 -5.1047,7.40625 35.05573,32.03125 13.62121,0 -26.61735,-24.09375 -16.74654,-15.1875 -0.026,0.0312 -0.18231,-0.1875 z m -6.09439,8.8125 -21.12199,30.625 54.66715,0 -33.54516,-30.625 z"
         style="fill:#3d7d00;fill-opacity:1;fill-rule:nonzero;stroke:none" />
      <path
         id="rect3958"
         d="m 141.5,543.6875 c -0.5946,9.1e-4 -0.96875,0.0312 -0.96875,0.0312 l -0.15625,0 0,55.875 0.9375,0 0,-50.4375 c 0.35143,-0.004 0.65367,-9.2e-4 1.46875,0.0312 2.2196,0.0876 6.00682,2.96483 8.4375,3.09375 5.19786,0.27569 9.52743,-5.53561 7.6875,-3.8125 -1.83994,1.72311 -8.56393,1.26956 -5.90625,0.65625 2.65768,-0.61331 5.46875,-3.75 5.46875,-3.75 0,0 -4.45945,4.00201 -8.34375,0.90625 -2.91322,-2.32181 -6.8412,-2.59649 -8.625,-2.59375 z"
         style="fill:#3d7d00;fill-opacity:1;fill-rule:nonzero;stroke:none"
         inkscape:connector-curvature="0" />
      <path
         inkscape:transform-center-y="-29.930284"
         inkscape:transform-center-x="29.479068"
         sodipodi:nodetypes="ssss"
         inkscape:connector-curvature="0"
         id="path3960-7"
         d="m 174.47585,555.84268 c 0.22993,2.71849 -0.7361,6.94502 -5.46631,7.35248 -4.73021,0.40746 -2.84682,-4.61708 -1.94507,-6.32412 1.33646,-2.52987 7.04892,-5.3125 7.41133,-1.02834 z"
         style="fill:#3d7d00;stroke:none;fill-opacity:1" />
    </g>
    <g
       id="g4009"
       transform="matrix(-1.0102237,0,0,1.0061867,322.26535,-582.04865)"
       inkscape:export-filename="/home/matus/NetBeansProjects/TrainingLog/images/css/activity-icons-small.png"
       inkscape:export-xdpi="19.798889"
       inkscape:export-ydpi="19.798889"
       style="fill:#ff8700;fill-opacity:1">
      <path
         sodipodi:nodetypes="cscccscsscssssc"
         inkscape:connector-curvature="0"
         id="path3989"
         d="m 84.392926,424.89815 c 0,0 20.677494,7.64287 33.117384,-9.6113 20.66605,-28.6639 69.75743,-9.43683 39.78683,24.53948 9.83014,-20.26413 2.30278,-29.08922 -9.8892,-21.47204 -7.35943,3.68091 -5.51956,13.49669 -1.60989,25.35745 2.08317,8.9804 12.31757,16.89078 24.49807,17.2462 13.49139,0.39364 25.65973,-8.13969 32.88238,-14.28101 -4.69031,8.16361 -12.23285,17.8494 -27.87096,20.77463 -7.21083,1.34884 -22.91725,-2.26646 -29.62448,-4.92623 -16.10305,-6.38571 -13.67825,-6.85861 -33.94993,-4.89009 -21.008814,0.49079 -4.80198,35.15543 -4.80198,35.15543 -1.04323,0.005 -23.391064,-26.10074 -7.352684,-41.09792 7.104374,-6.64314 17.451424,-7.8977 22.761444,-11.86642 7.59472,-5.67629 1.32331,-15.10749 -0.45995,-13.90569 -3.68856,2.48583 -12.649,16.35963 -37.487034,-1.02249 z"
         style="fill:#ff8700;stroke:none;fill-opacity:1" />
      <path
         inkscape:transform-center-y="-15.608073"
         inkscape:transform-center-x="2.0524027"
         sodipodi:nodetypes="ssss"
         inkscape:connector-curvature="0"
         id="path3960-73"
         d="m 124.04065,397.39111 c 0.70276,5.08726 -0.75568,13.1198 -9.83409,14.32588 -9.07845,1.20607 -5.92802,-8.41154 -4.35291,-11.70342 2.33442,-4.87861 13.07932,-10.63962 14.18692,-2.62243 z"
         style="fill:#ff8700;stroke:none;fill-opacity:1" />
    </g>
    <g
       id="g4073"
       style="fill:#000000"
       transform="matrix(1.1689498,0,0,1.2181195,337.16801,-1171.2492)"
       inkscape:export-filename="/home/matus/NetBeansProjects/TrainingLog/images/css/activity-icons-small.png"
       inkscape:export-xdpi="19.798889"
       inkscape:export-ydpi="19.798889">
      <path
         id="path4015"
         d="m 396.875,819.90625 c 0,0 -1.66756,19.34725 26.34375,23 0.46352,1.46632 0.88804,3.77691 0.25,6.3125 C 394.79646,855.39888 396.5,890.75 396.5,890.75 l 1,0 c 2.39792,-12.6557 10.26176,-30.96561 35.625,-30.6875 22.78999,0.24989 29.92468,18.21441 32.125,30.6875 l 0.9375,0 c 0,0 1.54469,-34.7721 -24.4375,-41.375 -0.46034,-1.55564 -0.79735,-3.88741 0.21875,-6.4375 26.16174,-3.61412 24.59375,-23.03125 24.59375,-23.03125 l -0.9375,0 c -2.20032,6.94332 -9.33501,16.9234 -32.125,17.0625 -25.36324,0.15482 -33.22708,-10.01753 -35.625,-17.0625 l -1,0 z"
         style="fill:#000000;stroke:none"
         inkscape:connector-curvature="0" />
      <path
         style="fill:#000000;stroke:none"
         d="m 428.1999,816.8734 c -3.97905,3.5478 -7.77225,10.48078 0.24676,16.11407 8.01906,5.63332 11.19952,-3.39563 11.8065,-6.74353 0.89949,-4.96169 -5.78236,-14.96154 -12.0532,-9.37049 z"
         id="path3960-73-7"
         inkscape:connector-curvature="0"
         sodipodi:nodetypes="ssss" />
      <path
         id="rect4063"
         d="m 388.5,808.65625 c -1.59522,0 -2.875,1.27978 -2.875,2.875 l 0,18.53125 c 0,1.59522 1.27978,2.875 2.875,2.875 1.59522,0 2.875,-1.27978 2.875,-2.875 l 0,-8.0625 77.65625,0 0,8.0625 c 0,1.59522 1.27978,2.875 2.875,2.875 1.59522,0 2.875,-1.27978 2.875,-2.875 l 0,-18.53125 c 0,-1.59522 -1.27978,-2.875 -2.875,-2.875 -1.59522,0 -2.875,1.27978 -2.875,2.875 l 0,8.15625 -77.65625,0 0,-8.15625 c 0,-1.59522 -1.27978,-2.875 -2.875,-2.875 z m -6.75,3.4375 c -1.59522,0 -2.875,1.27978 -2.875,2.875 l 0,11.65625 c 0,1.59522 1.27978,2.875 2.875,2.875 1.59522,0 2.90625,-1.27978 2.90625,-2.875 l 0,-11.65625 c 0,-1.59522 -1.31103,-2.875 -2.90625,-2.875 z m 96.90625,0 c -1.59522,0 -2.90625,1.27978 -2.90625,2.875 l 0,11.65625 c 0,1.59522 1.31103,2.875 2.90625,2.875 1.59522,0 2.875,-1.27978 2.875,-2.875 l 0,-11.65625 c 0,-1.59522 -1.27978,-2.875 -2.875,-2.875 z"
         style="fill:#000000;fill-opacity:1;fill-rule:nonzero;stroke:none"
         inkscape:connector-curvature="0" />
    </g>
    <g
       id="g4132"
       style="fill:#0000ff;fill-opacity:1"
       transform="matrix(-0.26541888,0,0,0.35055994,536.7811,-247.65737)"
       inkscape:export-filename="/home/matus/NetBeansProjects/TrainingLog/images/css/activity-icons-small.png"
       inkscape:export-xdpi="19.798889"
       inkscape:export-ydpi="19.798889">
      <path
         id="path4089"
         d="m 396.34375,239.90625 c -19.92753,0.39342 -45.19863,7.29223 -77.0625,25.3125 -109.53585,61.94681 -169.375,9.53125 -169.375,9.53125 27.82778,35.97333 75.0646,40.20065 123.40625,43.90625 10.48236,0.80352 22.48862,4.86236 31.35441,8.28452 40.47023,2.26288 53.61434,-21.22202 53.61434,-21.22202 0,0 19.19004,28.44331 64,43.21875 12.28829,-1.72047 25.93946,-4.51131 41.28125,-8.71875 35.69831,-3.28038 60.7083,1.36198 78.21875,9.15625 0.14573,-0.0364 0.29157,-0.0571 0.4375,-0.0937 -0.11557,0.0511 -0.22825,0.10535 -0.34375,0.15625 47.1938,21.07538 39.7603,65.02662 40.28125,37.9375 0.71428,-37.14286 -36.59977,-72.68401 -75.71875,-73.59375 -76.78571,-1.78571 -168.95089,-6.06249 -153.59375,-28.5625 41.2842,-59.85081 112.875,2.15625 112.875,2.15625 0,0 -14.28123,-48.55643 -69.375,-47.46875 z"
         style="fill:#0000ff;stroke:none;fill-opacity:1"
         inkscape:connector-curvature="0"
         sodipodi:nodetypes="cscscccccccsscccc" />
      <path
         style="fill:#0000ff;stroke:none;fill-opacity:1"
         d="m 294.02847,257.57412 c -1.68072,13.68834 -11.62306,33.01427 -38.26017,28.02574 -26.63717,-4.98863 -10.74761,-26.87756 -3.89899,-33.92718 10.14993,-10.4476 44.80751,-15.67026 42.15897,5.90147 z"
         id="path4091-5"
         inkscape:connector-curvature="0"
         sodipodi:nodetypes="ssss" />
      <g
         id="g4127"
         style="fill:#0000ff;fill-opacity:1">
        <path
           style="fill:#0000ff;stroke:none;fill-opacity:1"
           d="m 358.27557,309.75758 c 0,0 51.78572,76.78572 183.92857,43.57143 -99.28572,43.92857 -173.58066,1.8696 -182.14286,-13.57143 -6.5174,15.48773 -99.57347,31.84231 -229.87546,-41.5154 221.12094,62.97941 228.08975,11.5154 228.08975,11.5154 z"
           id="path4111"
           inkscape:connector-curvature="0"
           sodipodi:nodetypes="ccccc" />
        <path
           sodipodi:nodetypes="ccccc"
           inkscape:connector-curvature="0"
           id="path4119"
           d="m 360.64891,344.22473 c 0,0 42.70726,50.21869 147.81792,23.79898 -78.97505,34.94219 -140.84955,11.33613 -147.6602,-0.94616 -5.18415,12.31943 -81.47677,16.23702 -185.12316,-42.11406 146.0872,56.66184 184.96544,19.26124 184.96544,19.26124 z"
           style="fill:#0000ff;stroke:none;fill-opacity:1" />
        <path
           style="fill:#0000ff;stroke:none;fill-opacity:1"
           d="m 360.64891,370.99377 c 0,0 18.77869,21.29012 81.74649,16.65612 -99.08978,10.48116 -140.48093,-4.16291 -194.92622,-26.98879 94.30149,29.87613 113.17973,10.33267 113.17973,10.33267 z"
           id="path4125"
           inkscape:connector-curvature="0"
           sodipodi:nodetypes="cccc" />
      </g>
    </g>
    <text
       xml:space="preserve"
       style="font-size:139.31973267000000760px;font-style:normal;font-variant:normal;font-weight:bold;font-stretch:normal;line-height:125%;letter-spacing:0px;word-spacing:0px;fill:#dcff02;fill-opacity:1;stroke:none;font-family:Concielian Bold;-inkscape-font-specification:Concielian Bold"
       x="928.66949"
       y="-86.209236"
       id="text3026"
       sodipodi:linespacing="125%"
       inkscape:export-filename="/home/matus/NetBeansProjects/TrainingLog/images/css/activity-icons-small.png"
       inkscape:export-xdpi="19.798889"
       inkscape:export-ydpi="19.798889"><tspan
         sodipodi:role="line"
         id="tspan3028"
         x="928.66949"
         y="-86.209236"
         style="font-style:normal;font-variant:normal;font-weight:bold;font-stretch:normal;font-family:HandelGothic BT;-inkscape-font-specification:HandelGothic BT Bold;fill:#dcff02;fill-opacity:1">?</tspan></text>
  </g>
</svg>
